<svg width="710" height="382" viewBox="0 0 710 382" fill="none" xmlns="http://www.w3.org/2000/svg">
    <path d="M555 141C563.333 115.5 589.2 61.4 626 49" stroke="url(#paint0_linear_170_287)" stroke-dasharray="2 2"/>
    <path d="M210 58.8582C234.93 48.949 293.058 34.2182 326.132 54.5686" stroke="url(#paint1_linear_170_287)" stroke-dasharray="2 2"/>
    <rect x="230.029" y="132.5" width="348.72" height="236.839" rx="17.5" fill="white" fill-opacity="0.03" stroke="#436176"/>
    <path d="M191.5 371.321C191.5 370.779 191.94 370.339 192.482 370.339H618.518C619.06 370.339 619.5 370.779 619.5 371.321C619.5 374.319 617.07 376.749 614.073 376.749H196.927C193.93 376.749 191.5 374.319 191.5 371.321Z" fill="white" fill-opacity="0.03" stroke="#436176"/>
    <path d="M204.955 381.194C201.596 381.194 198.447 379.635 196.411 377.008H615.33C613.294 379.635 610.145 381.194 606.786 381.194H204.955Z" fill="white" fill-opacity="0.03" stroke="#436176"/>
    <rect x="235" y="137.694" width="338" height="226" rx="12" fill="url(#paint2_linear_170_287)" fill-opacity="0.2"/>
    <circle cx="330" cy="132" r="7" fill="#E479FF"/>
    <rect x="292" y="166" width="224" height="97" rx="6" fill="#A5D4F6" fill-opacity="0.08"/>
    <rect x="292" y="268" width="224" height="19" rx="4" fill="#A5D4F6" fill-opacity="0.08"/>
    <g filter="url(#filter0_d_170_287)">
        <rect x="379" y="293" width="61" height="18" rx="4" fill="url(#paint3_linear_170_287)"/>
    </g>
    <rect x="506" y="72" width="204" height="241" rx="10" fill="#B1EDFF" fill-opacity="0.16"/>
    <rect x="497" y="83" width="203" height="261" rx="8.69268" fill="url(#paint4_linear_170_287)"/>
    <g filter="url(#filter1_b_170_287)">
        <rect x="502" y="161" width="195" height="96" rx="6" fill="#D7EBFF" fill-opacity="0.5"/>
    </g>
    <path d="M171.436 103C143.102 121.333 100.761 169.937 123.436 232.5C154.935 319.414 234.216 269.123 203.435 249.5C163.435 224 96.4355 370.5 285.436 339.5" stroke="url(#paint5_linear_170_287)" stroke-dasharray="2 2"/>
    <g filter="url(#filter2_b_170_287)">
        <circle cx="599" cy="207" r="22" fill="white" fill-opacity="0.4"/>
    </g>
    <g filter="url(#filter3_d_170_287)">
        <rect x="549" y="278" width="132" height="28" rx="4.34634" fill="#B7DEFF"/>
    </g>
    <g filter="url(#filter4_d_170_287)">
        <rect x="468" y="113" width="151" height="28" rx="4.34634" fill="#42F4FF"/>
    </g>
    <g filter="url(#filter5_d_170_287)">
        <rect x="468" y="101" width="113" height="6" rx="3" fill="#42F4FF"/>
    </g>
    <g filter="url(#filter6_d_170_287)">
        <path d="M607.129 205.457C608.099 206.257 608.099 207.743 607.129 208.543L596.523 217.291C595.218 218.367 593.25 217.439 593.25 215.748L593.25 198.252C593.25 196.561 595.218 195.633 596.523 196.709L607.129 205.457Z" fill="white"/>
    </g>
    <line x1="446" y1="301.5" x2="492" y2="301.5" stroke="url(#paint6_linear_170_287)" stroke-dasharray="2 2"/>
    <rect x="172.892" y="201" width="71.2162" height="50.5405" rx="9" fill="url(#paint7_linear_170_287)"/>
    <g filter="url(#filter7_b_170_287)">
        <path d="M180.488 238.366L169.252 229.351C167.943 228.3 166 229.232 166 230.911V251.667C166 254.98 168.686 257.667 172 257.667H245C248.314 257.667 251 254.98 251 251.667V218.082C251 216.58 249.407 215.614 248.075 216.308L205.714 238.392C204.902 238.815 203.906 238.633 203.297 237.949L199.034 233.168C198.465 232.53 197.554 232.324 196.766 232.656L182.515 238.65C181.838 238.934 181.06 238.825 180.488 238.366Z" fill="white" fill-opacity="0.25"/>
        <path d="M180.488 238.366L169.252 229.351C167.943 228.3 166 229.232 166 230.911V251.667C166 254.98 168.686 257.667 172 257.667H245C248.314 257.667 251 254.98 251 251.667V218.082C251 216.58 249.407 215.614 248.075 216.308L205.714 238.392C204.902 238.815 203.906 238.633 203.297 237.949L199.034 233.168C198.465 232.53 197.554 232.324 196.766 232.656L182.515 238.65C181.838 238.934 181.06 238.825 180.488 238.366Z" stroke="white" stroke-opacity="0.35"/>
    </g>
    <circle cx="188.973" cy="216.315" r="6.12613" fill="white" fill-opacity="0.25"/>
    <circle cx="188.973" cy="216.315" r="5.62613" stroke="white" stroke-opacity="0.35"/>
    <g filter="url(#filter8_d_170_287)">
        <circle cx="529.5" cy="292.5" r="12.5" fill="#B7DEFF"/>
    </g>
    <circle cx="430" cy="31" r="7" fill="#1E90E5"/>
    <circle cx="38" cy="280" r="6" fill="#42F4FF"/>
    <circle cx="340" cy="38" r="3" fill="#A5D5FF"/>
    <circle cx="66" cy="61" r="3" fill="white"/>
    <circle cx="640.5" cy="41.5" r="3.5" fill="#EB9BFF"/>
    <g filter="url(#filter9_b_170_287)">
        <rect x="119" y="292" width="49" height="73" rx="7" fill="url(#paint8_linear_170_287)"/>
    </g>
    <g filter="url(#filter10_b_170_287)">
        <rect x="152" y="300" width="36" height="34" rx="6" fill="white" fill-opacity="0.3"/>
        <rect x="152.5" y="300.5" width="35" height="33" rx="5.5" stroke="white" stroke-opacity="0.35"/>
    </g>
    <path d="M162 309V325L170 315.667L178 325V309" stroke="white" stroke-opacity="0.7" stroke-width="3" stroke-linecap="round" stroke-linejoin="round"/>
    <g filter="url(#filter11_b_170_287)">
        <rect x="97" y="53" width="178" height="93" rx="8" fill="#93CDFF" fill-opacity="0.3"/>
        <rect x="97.5" y="53.5" width="177" height="92" rx="7.5" stroke="white" stroke-opacity="0.25"/>
    </g>
    <g filter="url(#filter12_d_170_287)">
        <rect x="192" y="60" width="71" height="8" rx="4" fill="#AB77FF"/>
    </g>
    <g filter="url(#filter13_d_170_287)">
        <rect x="192" y="72" width="71" height="35" rx="4" fill="url(#paint9_linear_170_287)"/>
    </g>
    <g filter="url(#filter14_d_170_287)">
        <rect x="104" y="60" width="79" height="100" rx="8" fill="#BDBDFF"/>
    </g>
    <g filter="url(#filter15_i_170_287)">
        <path fill-rule="evenodd" clip-rule="evenodd" d="M66.8461 141.467C63.8284 142.836 62.492 146.392 63.8611 149.409L64 149.716V191.091C64 196.614 68.4771 201.091 74 201.091H142.758C148.28 201.091 152.758 196.614 152.758 191.091V153C152.758 149.134 149.624 146 145.758 146H101.301L139.688 128.584C142.706 127.215 144.042 123.659 142.673 120.641L140.044 114.846C138.675 111.828 135.118 110.492 132.101 111.861L66.8461 141.467Z" fill="url(#paint10_linear_170_287)"/>
    </g>
    <g filter="url(#filter16_b_170_287)">
        <rect x="55" y="139" width="106" height="22" rx="4" fill="white" fill-opacity="0.25"/>
        <rect x="55.5" y="139.5" width="105" height="21" rx="3.5" stroke="white" stroke-opacity="0.35"/>
    </g>
    <g filter="url(#filter17_d_170_287)">
        <path d="M118.997 175.427C120.016 176.228 120.016 177.772 118.997 178.573L105.485 189.182C104.173 190.213 102.25 189.278 102.25 187.609L102.25 166.391C102.25 164.722 104.173 163.787 105.485 164.818L118.997 175.427Z" fill="#A4CFFF" fill-opacity="0.99" shape-rendering="crispEdges"/>
    </g>
    <g filter="url(#filter18_d_170_287)">
        <circle cx="199.5" cy="119.5" r="7.5" fill="#AB77FF"/>
    </g>
    <g filter="url(#filter19_b_170_287)">
        <rect x="340" y="74.811" width="45.6766" height="30.9949" rx="6" transform="rotate(-42.4187 340 74.811)" fill="url(#paint11_linear_170_287)"/>
    </g>
    <path d="M369.853 66.9435C371.15 66.8431 372.196 67.988 371.98 69.2706L370.891 75.7151C370.614 77.358 368.567 77.9611 367.443 76.731L362.015 70.7908C360.891 69.5608 361.676 67.5762 363.337 67.4477L369.853 66.9435Z" fill="white" fill-opacity="0.35"/>
    <path d="M425.247 104.474C424.131 105.143 423.939 106.682 424.858 107.602L429.474 112.23C430.65 113.409 432.669 112.717 432.875 111.064L433.866 103.078C434.071 101.425 432.283 100.26 430.854 101.116L425.247 104.474Z" fill="#7843CE"/>
    <rect x="391" y="213.455" width="34" height="3.09091" rx="1.5" fill="#467095"/>
    <rect x="406.455" y="232" width="34" height="3.09091" rx="1.5" transform="rotate(-90 406.455 232)" fill="#467095"/>
    <circle cx="330" cy="132" r="7" fill="#E479FF"/>
    <path d="M299.011 328.122C300.308 328.022 301.354 329.167 301.137 330.449L300.049 336.894C299.771 338.537 297.724 339.14 296.6 337.91L291.172 331.97C290.049 330.739 290.833 328.755 292.495 328.626L299.011 328.122Z" fill="#E479FF"/>
    <rect x="125" y="308" width="23" height="3" rx="1.5" fill="white" fill-opacity="0.25"/>
    <rect x="125" y="315" width="23" height="3" rx="1.5" fill="white" fill-opacity="0.25"/>
    <rect x="125" y="338" width="37" height="3" rx="1.5" fill="white" fill-opacity="0.25"/>
    <rect x="125" y="346" width="37" height="3" rx="1.5" fill="white" fill-opacity="0.25"/>
    <defs>
        <filter id="filter0_d_170_287" x="375" y="293" width="69" height="26" filterUnits="userSpaceOnUse" color-interpolation-filters="sRGB">
            <feFlood flood-opacity="0" result="BackgroundImageFix"/>
            <feColorMatrix in="SourceAlpha" type="matrix" values="0 0 0 0 0 0 0 0 0 0 0 0 0 0 0 0 0 0 127 0" result="hardAlpha"/>
            <feOffset dy="4"/>
            <feGaussianBlur stdDeviation="2"/>
            <feComposite in2="hardAlpha" operator="out"/>
            <feColorMatrix type="matrix" values="0 0 0 0 0.260758 0 0 0 0 0.955645 0 0 0 0 1 0 0 0 0.05 0"/>
            <feBlend mode="normal" in2="BackgroundImageFix" result="effect1_dropShadow_170_287"/>
            <feBlend mode="normal" in="SourceGraphic" in2="effect1_dropShadow_170_287" result="shape"/>
        </filter>
        <filter id="filter1_b_170_287" x="498" y="157" width="203" height="104" filterUnits="userSpaceOnUse" color-interpolation-filters="sRGB">
            <feFlood flood-opacity="0" result="BackgroundImageFix"/>
            <feGaussianBlur in="BackgroundImageFix" stdDeviation="2"/>
            <feComposite in2="SourceAlpha" operator="in" result="effect1_backgroundBlur_170_287"/>
            <feBlend mode="normal" in="SourceGraphic" in2="effect1_backgroundBlur_170_287" result="shape"/>
        </filter>
        <filter id="filter2_b_170_287" x="574.102" y="182.102" width="49.7951" height="49.7951" filterUnits="userSpaceOnUse" color-interpolation-filters="sRGB">
            <feFlood flood-opacity="0" result="BackgroundImageFix"/>
            <feGaussianBlur in="BackgroundImageFix" stdDeviation="1.44878"/>
            <feComposite in2="SourceAlpha" operator="in" result="effect1_backgroundBlur_170_287"/>
            <feBlend mode="normal" in="SourceGraphic" in2="effect1_backgroundBlur_170_287" result="shape"/>
        </filter>
        <filter id="filter3_d_170_287" x="545" y="278" width="140" height="36" filterUnits="userSpaceOnUse" color-interpolation-filters="sRGB">
            <feFlood flood-opacity="0" result="BackgroundImageFix"/>
            <feColorMatrix in="SourceAlpha" type="matrix" values="0 0 0 0 0 0 0 0 0 0 0 0 0 0 0 0 0 0 127 0" result="hardAlpha"/>
            <feOffset dy="4"/>
            <feGaussianBlur stdDeviation="2"/>
            <feComposite in2="hardAlpha" operator="out"/>
            <feColorMatrix type="matrix" values="0 0 0 0 0.164706 0 0 0 0 0.572549 0 0 0 0 0.870588 0 0 0 0.3 0"/>
            <feBlend mode="normal" in2="BackgroundImageFix" result="effect1_dropShadow_170_287"/>
            <feBlend mode="normal" in="SourceGraphic" in2="effect1_dropShadow_170_287" result="shape"/>
        </filter>
        <filter id="filter4_d_170_287" x="464.5" y="109.5" width="158" height="35" filterUnits="userSpaceOnUse" color-interpolation-filters="sRGB">
            <feFlood flood-opacity="0" result="BackgroundImageFix"/>
            <feColorMatrix in="SourceAlpha" type="matrix" values="0 0 0 0 0 0 0 0 0 0 0 0 0 0 0 0 0 0 127 0" result="hardAlpha"/>
            <feOffset/>
            <feGaussianBlur stdDeviation="1.75"/>
            <feComposite in2="hardAlpha" operator="out"/>
            <feColorMatrix type="matrix" values="0 0 0 0 0.164706 0 0 0 0 0.572549 0 0 0 0 0.870588 0 0 0 0.53 0"/>
            <feBlend mode="normal" in2="BackgroundImageFix" result="effect1_dropShadow_170_287"/>
            <feBlend mode="normal" in="SourceGraphic" in2="effect1_dropShadow_170_287" result="shape"/>
        </filter>
        <filter id="filter5_d_170_287" x="464.5" y="97.5" width="120" height="13" filterUnits="userSpaceOnUse" color-interpolation-filters="sRGB">
            <feFlood flood-opacity="0" result="BackgroundImageFix"/>
            <feColorMatrix in="SourceAlpha" type="matrix" values="0 0 0 0 0 0 0 0 0 0 0 0 0 0 0 0 0 0 127 0" result="hardAlpha"/>
            <feOffset/>
            <feGaussianBlur stdDeviation="1.75"/>
            <feComposite in2="hardAlpha" operator="out"/>
            <feColorMatrix type="matrix" values="0 0 0 0 0.164706 0 0 0 0 0.572549 0 0 0 0 0.870588 0 0 0 0.53 0"/>
            <feBlend mode="normal" in2="BackgroundImageFix" result="effect1_dropShadow_170_287"/>
            <feBlend mode="normal" in="SourceGraphic" in2="effect1_dropShadow_170_287" result="shape"/>
        </filter>
        <filter id="filter6_d_170_287" x="589.25" y="196.248" width="22.6068" height="29.5042" filterUnits="userSpaceOnUse" color-interpolation-filters="sRGB">
            <feFlood flood-opacity="0" result="BackgroundImageFix"/>
            <feColorMatrix in="SourceAlpha" type="matrix" values="0 0 0 0 0 0 0 0 0 0 0 0 0 0 0 0 0 0 127 0" result="hardAlpha"/>
            <feOffset dy="4"/>
            <feGaussianBlur stdDeviation="2"/>
            <feComposite in2="hardAlpha" operator="out"/>
            <feColorMatrix type="matrix" values="0 0 0 0 0.121569 0 0 0 0 0.568627 0 0 0 0 0.898039 0 0 0 0.28 0"/>
            <feBlend mode="normal" in2="BackgroundImageFix" result="effect1_dropShadow_170_287"/>
            <feBlend mode="normal" in="SourceGraphic" in2="effect1_dropShadow_170_287" result="shape"/>
        </filter>
        <filter id="filter7_b_170_287" x="159.5" y="209.578" width="98" height="54.5882" filterUnits="userSpaceOnUse" color-interpolation-filters="sRGB">
            <feFlood flood-opacity="0" result="BackgroundImageFix"/>
            <feGaussianBlur in="BackgroundImageFix" stdDeviation="3"/>
            <feComposite in2="SourceAlpha" operator="in" result="effect1_backgroundBlur_170_287"/>
            <feBlend mode="normal" in="SourceGraphic" in2="effect1_backgroundBlur_170_287" result="shape"/>
        </filter>
        <filter id="filter8_d_170_287" x="513" y="280" width="33" height="33" filterUnits="userSpaceOnUse" color-interpolation-filters="sRGB">
            <feFlood flood-opacity="0" result="BackgroundImageFix"/>
            <feColorMatrix in="SourceAlpha" type="matrix" values="0 0 0 0 0 0 0 0 0 0 0 0 0 0 0 0 0 0 127 0" result="hardAlpha"/>
            <feOffset dy="4"/>
            <feGaussianBlur stdDeviation="2"/>
            <feComposite in2="hardAlpha" operator="out"/>
            <feColorMatrix type="matrix" values="0 0 0 0 0.164706 0 0 0 0 0.572549 0 0 0 0 0.870588 0 0 0 0.3 0"/>
            <feBlend mode="normal" in2="BackgroundImageFix" result="effect1_dropShadow_170_287"/>
            <feBlend mode="normal" in="SourceGraphic" in2="effect1_dropShadow_170_287" result="shape"/>
        </filter>
        <filter id="filter9_b_170_287" x="115" y="288" width="57" height="81" filterUnits="userSpaceOnUse" color-interpolation-filters="sRGB">
            <feFlood flood-opacity="0" result="BackgroundImageFix"/>
            <feGaussianBlur in="BackgroundImageFix" stdDeviation="2"/>
            <feComposite in2="SourceAlpha" operator="in" result="effect1_backgroundBlur_170_287"/>
            <feBlend mode="normal" in="SourceGraphic" in2="effect1_backgroundBlur_170_287" result="shape"/>
        </filter>
        <filter id="filter10_b_170_287" x="146" y="294" width="48" height="46" filterUnits="userSpaceOnUse" color-interpolation-filters="sRGB">
            <feFlood flood-opacity="0" result="BackgroundImageFix"/>
            <feGaussianBlur in="BackgroundImageFix" stdDeviation="3"/>
            <feComposite in2="SourceAlpha" operator="in" result="effect1_backgroundBlur_170_287"/>
            <feBlend mode="normal" in="SourceGraphic" in2="effect1_backgroundBlur_170_287" result="shape"/>
        </filter>
        <filter id="filter11_b_170_287" x="89" y="45" width="194" height="109" filterUnits="userSpaceOnUse" color-interpolation-filters="sRGB">
            <feFlood flood-opacity="0" result="BackgroundImageFix"/>
            <feGaussianBlur in="BackgroundImageFix" stdDeviation="4"/>
            <feComposite in2="SourceAlpha" operator="in" result="effect1_backgroundBlur_170_287"/>
            <feBlend mode="normal" in="SourceGraphic" in2="effect1_backgroundBlur_170_287" result="shape"/>
        </filter>
        <filter id="filter12_d_170_287" x="188" y="60" width="79" height="16" filterUnits="userSpaceOnUse" color-interpolation-filters="sRGB">
            <feFlood flood-opacity="0" result="BackgroundImageFix"/>
            <feColorMatrix in="SourceAlpha" type="matrix" values="0 0 0 0 0 0 0 0 0 0 0 0 0 0 0 0 0 0 127 0" result="hardAlpha"/>
            <feOffset dy="4"/>
            <feGaussianBlur stdDeviation="2"/>
            <feComposite in2="hardAlpha" operator="out"/>
            <feColorMatrix type="matrix" values="0 0 0 0 0.158717 0 0 0 0 0.0937145 0 0 0 0 0.264193 0 0 0 0.2 0"/>
            <feBlend mode="normal" in2="BackgroundImageFix" result="effect1_dropShadow_170_287"/>
            <feBlend mode="normal" in="SourceGraphic" in2="effect1_dropShadow_170_287" result="shape"/>
        </filter>
        <filter id="filter13_d_170_287" x="188" y="72" width="79" height="43" filterUnits="userSpaceOnUse" color-interpolation-filters="sRGB">
            <feFlood flood-opacity="0" result="BackgroundImageFix"/>
            <feColorMatrix in="SourceAlpha" type="matrix" values="0 0 0 0 0 0 0 0 0 0 0 0 0 0 0 0 0 0 127 0" result="hardAlpha"/>
            <feOffset dy="4"/>
            <feGaussianBlur stdDeviation="2"/>
            <feComposite in2="hardAlpha" operator="out"/>
            <feColorMatrix type="matrix" values="0 0 0 0 0.158717 0 0 0 0 0.0937145 0 0 0 0 0.264193 0 0 0 0.2 0"/>
            <feBlend mode="normal" in2="BackgroundImageFix" result="effect1_dropShadow_170_287"/>
            <feBlend mode="normal" in="SourceGraphic" in2="effect1_dropShadow_170_287" result="shape"/>
        </filter>
        <filter id="filter14_d_170_287" x="100" y="60" width="87" height="108" filterUnits="userSpaceOnUse" color-interpolation-filters="sRGB">
            <feFlood flood-opacity="0" result="BackgroundImageFix"/>
            <feColorMatrix in="SourceAlpha" type="matrix" values="0 0 0 0 0 0 0 0 0 0 0 0 0 0 0 0 0 0 127 0" result="hardAlpha"/>
            <feOffset dy="4"/>
            <feGaussianBlur stdDeviation="2"/>
            <feComposite in2="hardAlpha" operator="out"/>
            <feColorMatrix type="matrix" values="0 0 0 0 0.158717 0 0 0 0 0.0937145 0 0 0 0 0.264193 0 0 0 0.2 0"/>
            <feBlend mode="normal" in2="BackgroundImageFix" result="effect1_dropShadow_170_287"/>
            <feBlend mode="normal" in="SourceGraphic" in2="effect1_dropShadow_170_287" result="shape"/>
        </filter>
        <filter id="filter15_i_170_287" x="63.3235" y="111.324" width="89.434" height="90.7673" filterUnits="userSpaceOnUse" color-interpolation-filters="sRGB">
            <feFlood flood-opacity="0" result="BackgroundImageFix"/>
            <feBlend mode="normal" in="SourceGraphic" in2="BackgroundImageFix" result="shape"/>
            <feColorMatrix in="SourceAlpha" type="matrix" values="0 0 0 0 0 0 0 0 0 0 0 0 0 0 0 0 0 0 127 0" result="hardAlpha"/>
            <feOffset dy="1"/>
            <feGaussianBlur stdDeviation="2"/>
            <feComposite in2="hardAlpha" operator="arithmetic" k2="-1" k3="1"/>
            <feColorMatrix type="matrix" values="0 0 0 0 0.647119 0 0 0 0 0.818631 0 0 0 0 1 0 0 0 1 0"/>
            <feBlend mode="normal" in2="shape" result="effect1_innerShadow_170_287"/>
        </filter>
        <filter id="filter16_b_170_287" x="49" y="133" width="118" height="34" filterUnits="userSpaceOnUse" color-interpolation-filters="sRGB">
            <feFlood flood-opacity="0" result="BackgroundImageFix"/>
            <feGaussianBlur in="BackgroundImageFix" stdDeviation="3"/>
            <feComposite in2="SourceAlpha" operator="in" result="effect1_backgroundBlur_170_287"/>
            <feBlend mode="normal" in="SourceGraphic" in2="effect1_backgroundBlur_170_287" result="shape"/>
        </filter>
        <filter id="filter17_d_170_287" x="97.25" y="162.387" width="27.5115" height="35.2258" filterUnits="userSpaceOnUse" color-interpolation-filters="sRGB">
            <feFlood flood-opacity="0" result="BackgroundImageFix"/>
            <feColorMatrix in="SourceAlpha" type="matrix" values="0 0 0 0 0 0 0 0 0 0 0 0 0 0 0 0 0 0 127 0" result="hardAlpha"/>
            <feOffset dy="3"/>
            <feGaussianBlur stdDeviation="2.5"/>
            <feComposite in2="hardAlpha" operator="out"/>
            <feColorMatrix type="matrix" values="0 0 0 0 0.197526 0 0 0 0 0.560938 0 0 0 0 1 0 0 0 1 0"/>
            <feBlend mode="normal" in2="BackgroundImageFix" result="effect1_dropShadow_170_287"/>
            <feBlend mode="normal" in="SourceGraphic" in2="effect1_dropShadow_170_287" result="shape"/>
        </filter>
        <filter id="filter18_d_170_287" x="188" y="112" width="23" height="23" filterUnits="userSpaceOnUse" color-interpolation-filters="sRGB">
            <feFlood flood-opacity="0" result="BackgroundImageFix"/>
            <feColorMatrix in="SourceAlpha" type="matrix" values="0 0 0 0 0 0 0 0 0 0 0 0 0 0 0 0 0 0 127 0" result="hardAlpha"/>
            <feOffset dy="4"/>
            <feGaussianBlur stdDeviation="2"/>
            <feComposite in2="hardAlpha" operator="out"/>
            <feColorMatrix type="matrix" values="0 0 0 0 0.158717 0 0 0 0 0.0937145 0 0 0 0 0.264193 0 0 0 0.2 0"/>
            <feBlend mode="normal" in2="BackgroundImageFix" result="effect1_dropShadow_170_287"/>
            <feBlend mode="normal" in="SourceGraphic" in2="effect1_dropShadow_170_287" result="shape"/>
        </filter>
        <filter id="filter19_b_170_287" x="338.477" y="42.4768" width="57.6742" height="56.7391" filterUnits="userSpaceOnUse" color-interpolation-filters="sRGB">
            <feFlood flood-opacity="0" result="BackgroundImageFix"/>
            <feGaussianBlur in="BackgroundImageFix" stdDeviation="2"/>
            <feComposite in2="SourceAlpha" operator="in" result="effect1_backgroundBlur_170_287"/>
            <feBlend mode="normal" in="SourceGraphic" in2="effect1_backgroundBlur_170_287" result="shape"/>
        </filter>
        <linearGradient id="paint0_linear_170_287" x1="616.305" y1="139.346" x2="564.253" y2="72.1992" gradientUnits="userSpaceOnUse">
            <stop stop-color="#1F91E5"/>
            <stop offset="1" stop-color="#E479FF"/>
        </linearGradient>
        <linearGradient id="paint1_linear_170_287" x1="250.492" y1="104.917" x2="268.798" y2="21.9533" gradientUnits="userSpaceOnUse">
            <stop stop-color="#E479FF"/>
            <stop offset="1" stop-color="#1F91E5"/>
        </linearGradient>
        <linearGradient id="paint2_linear_170_287" x1="251.5" y1="138" x2="513" y2="364" gradientUnits="userSpaceOnUse">
            <stop stop-color="#1064A1"/>
            <stop offset="1" stop-color="#840AA2"/>
        </linearGradient>
        <linearGradient id="paint3_linear_170_287" x1="379" y1="302" x2="440" y2="302" gradientUnits="userSpaceOnUse">
            <stop stop-color="#2A92DE"/>
            <stop offset="1" stop-color="#42F4FF"/>
        </linearGradient>
        <linearGradient id="paint4_linear_170_287" x1="497" y1="83" x2="691.725" y2="343.12" gradientUnits="userSpaceOnUse">
            <stop stop-color="#029FCF"/>
            <stop offset="0.495" stop-color="#0FD7EB"/>
            <stop offset="1" stop-color="#024CED"/>
        </linearGradient>
        <linearGradient id="paint5_linear_170_287" x1="123.435" y1="177" x2="262.435" y2="339.5" gradientUnits="userSpaceOnUse">
            <stop stop-color="#1F91E5"/>
            <stop offset="1" stop-color="#E479FF"/>
        </linearGradient>
        <linearGradient id="paint6_linear_170_287" x1="446" y1="302.5" x2="492" y2="302.5" gradientUnits="userSpaceOnUse">
            <stop stop-color="#1E90E5"/>
            <stop offset="1" stop-color="#E479FF"/>
        </linearGradient>
        <linearGradient id="paint7_linear_170_287" x1="178.252" y1="202.914" x2="239.131" y2="251.541" gradientUnits="userSpaceOnUse">
            <stop stop-color="#42F4FF"/>
            <stop offset="1" stop-color="#E479FF"/>
        </linearGradient>
        <linearGradient id="paint8_linear_170_287" x1="143.5" y1="292" x2="190.859" y2="344.3" gradientUnits="userSpaceOnUse">
            <stop stop-color="#A268FF"/>
            <stop offset="1" stop-color="#2A92DE"/>
        </linearGradient>
        <linearGradient id="paint9_linear_170_287" x1="195" y1="70.5" x2="263" y2="111.5" gradientUnits="userSpaceOnUse">
            <stop stop-color="#AB77FF"/>
            <stop offset="1" stop-color="#42F4FF"/>
        </linearGradient>
        <linearGradient id="paint10_linear_170_287" x1="69.416" y1="146.508" x2="143.334" y2="188.226" gradientUnits="userSpaceOnUse">
            <stop stop-color="#E479FF"/>
            <stop offset="1" stop-color="#1E90E5"/>
        </linearGradient>
        <linearGradient id="paint11_linear_170_287" x1="346.281" y1="67.9372" x2="362.838" y2="105.806" gradientUnits="userSpaceOnUse">
            <stop stop-color="#2A92DE"/>
            <stop offset="1" stop-color="#E479FF"/>
        </linearGradient>
    </defs>
</svg>
