<svg width="236" height="86" viewBox="0 0 236 86" fill="none" xmlns="http://www.w3.org/2000/svg">
    <rect width="236" height="86" rx="2" fill="white"/>
    <g clip-path="url(#clip0_289_58)">
        <path d="M16.812 26.414H29.202V27.366H16.812V26.414ZM23.042 28.92H28.278V29.844H23.042V28.92ZM22.58 26.834H23.644V32.14H22.58V26.834ZM19.836 29.116C20.69 31.412 22.538 31.846 25.282 31.86C25.814 31.86 28.74 31.86 29.468 31.846C29.314 32.084 29.146 32.546 29.09 32.854H25.24C21.964 32.854 20.06 32.266 18.968 29.438L19.836 29.116ZM19.234 27.814L20.284 27.968C19.836 30.292 18.828 32.028 17.288 33.148C17.134 32.952 16.728 32.574 16.49 32.406C17.974 31.44 18.87 29.872 19.234 27.814ZM19.304 23.516V24.664H26.598V23.516H19.304ZM19.304 21.626V22.76H26.598V21.626H19.304ZM18.282 20.828H27.662V25.462H18.282V20.828ZM33.052 31.51H40.962V32.448H33.052V31.51ZM32.464 27.842H41.634V33.092H40.5V28.766H33.542V33.12H32.464V27.842ZM30.924 21.038H43.076V22.032H30.924V21.038ZM37.644 21.43L38.666 21.892C36.902 24.118 34.004 25.812 31.232 26.876C31.078 26.638 30.714 26.148 30.49 25.924C33.262 25.028 36.076 23.432 37.644 21.43ZM38.106 24.104L38.848 23.39C40.458 24.048 42.376 25.154 43.426 25.91L42.67 26.708C41.648 25.896 39.716 24.762 38.106 24.104ZM36.44 23.46L37.504 22.41L37.518 22.424V27.422H36.44V23.46ZM44.63 27.898H57.37V28.78H44.63V27.898ZM44.966 20.856H57.02V21.78H44.966V20.856ZM49.488 26.428L50.51 26.708C49.6 28.164 48.312 29.998 47.416 31.146L46.422 30.81C47.318 29.676 48.62 27.8 49.488 26.428ZM53.688 28.206L54.696 28.5C53.464 31.58 50.482 32.728 45.232 33.12C45.162 32.812 44.994 32.434 44.826 32.196C49.824 31.93 52.568 30.936 53.688 28.206ZM47.178 30.67L47.71 29.9C51.168 30.516 54.766 31.454 56.936 32.308L56.306 33.162C54.164 32.28 50.734 31.328 47.178 30.67ZM48.788 21.206H49.782V26.092H48.788V21.206ZM52.05 21.206H53.044V26.092H52.05V21.206ZM46.646 23.838V25.742H55.382V23.838H46.646ZM45.666 22.984H56.432V26.61H45.666V22.984ZM67.912 21.794H68.766V29.704H67.912V21.794ZM69.956 20.478H70.866V31.944C70.866 32.504 70.726 32.798 70.39 32.938C70.04 33.106 69.466 33.134 68.57 33.12C68.528 32.882 68.388 32.462 68.248 32.196C68.92 32.21 69.508 32.21 69.69 32.21C69.886 32.196 69.956 32.14 69.956 31.93V20.478ZM59.848 20.702H62.312V21.626H59.848V20.702ZM59.498 20.702H60.38V27.366C60.38 29.228 60.254 31.636 59.302 33.134C59.148 32.98 58.756 32.714 58.546 32.602C59.428 31.188 59.498 29.102 59.498 27.366V20.702ZM61.682 20.702H62.578V31.846C62.578 32.336 62.48 32.63 62.172 32.784C61.864 32.952 61.402 32.966 60.66 32.966C60.632 32.714 60.506 32.294 60.394 32.042C60.884 32.07 61.346 32.056 61.486 32.056C61.626 32.042 61.682 32 61.682 31.832V20.702ZM63.88 20.702H66.344V21.64H63.88V20.702ZM63.558 20.702H64.426V26.764C64.426 28.71 64.314 31.398 63.474 33.12C63.32 32.966 62.928 32.742 62.704 32.658C63.502 31.02 63.558 28.612 63.558 26.764V20.702ZM65.728 20.702H66.624V31.846C66.624 32.336 66.526 32.63 66.218 32.784C65.91 32.952 65.448 32.966 64.706 32.966C64.678 32.714 64.566 32.294 64.44 32.042C64.944 32.07 65.392 32.056 65.546 32.056C65.686 32.056 65.728 32 65.728 31.846V20.702ZM58.602 25.7H67.338V26.666H58.602V25.7ZM78.384 24.342H83.802V25.224H78.384V24.342ZM77.446 26.974H84.908V27.884H77.446V26.974ZM81.03 21.234C80.218 22.55 78.72 24.132 77.124 25.112C77.012 24.874 76.76 24.496 76.578 24.286C78.188 23.348 79.756 21.71 80.512 20.282H81.464C82.472 21.822 84.11 23.362 85.608 24.174C85.398 24.398 85.16 24.776 85.02 25.056C83.55 24.146 81.94 22.606 81.03 21.234ZM80.54 24.776H81.548V31.93C81.548 32.49 81.436 32.784 81.058 32.938C80.708 33.106 80.134 33.134 79.238 33.134C79.196 32.854 79.042 32.42 78.888 32.14C79.546 32.168 80.134 32.154 80.316 32.154C80.498 32.154 80.54 32.098 80.54 31.93V24.776ZM78.356 28.64L79.28 28.878C78.818 30.152 78.034 31.426 77.236 32.252C77.068 32.084 76.704 31.776 76.48 31.622C77.264 30.88 77.95 29.774 78.356 28.64ZM82.584 29.004L83.382 28.626C84.138 29.578 84.992 30.894 85.342 31.72L84.474 32.168C84.138 31.342 83.312 29.998 82.584 29.004ZM73.12 20.856H76.424V21.808H74.072V33.134H73.12V20.856ZM76.102 20.856H76.284L76.452 20.814L77.124 21.22C76.718 22.368 76.2 23.81 75.724 24.93C76.76 26.092 76.984 27.072 76.984 27.94C76.984 28.696 76.83 29.284 76.438 29.564C76.242 29.69 75.99 29.774 75.71 29.816C75.43 29.844 75.08 29.844 74.758 29.83C74.744 29.578 74.66 29.172 74.506 28.906C74.828 28.934 75.094 28.948 75.318 28.92C75.486 28.92 75.64 28.878 75.752 28.794C75.976 28.64 76.046 28.262 76.046 27.842C76.046 27.086 75.794 26.134 74.786 25.042C75.29 23.768 75.808 22.102 76.102 21.136V20.856ZM90.1904 24.665V23.8379C90.1904 23.5599 90.236 23.2705 90.3271 22.9697C90.4229 22.6644 90.5596 22.3727 90.7373 22.0947C90.915 21.8122 91.1292 21.5684 91.3799 21.3633L92.0977 21.8623C91.888 22.1631 91.7262 22.473 91.6123 22.792C91.4984 23.1064 91.4414 23.4482 91.4414 23.8174V24.665H90.1904ZM92.3438 24.665V23.8379C92.3438 23.5599 92.3893 23.2705 92.4805 22.9697C92.5762 22.6644 92.7129 22.3727 92.8906 22.0947C93.0684 21.8122 93.2826 21.5684 93.5332 21.3633L94.251 21.8623C94.0413 22.1631 93.8796 22.473 93.7656 22.792C93.6517 23.1064 93.5947 23.4482 93.5947 23.8174V24.665H92.3438ZM98.4414 22.9287L95.1465 32H93.7998L97.5938 22.0469H98.4619L98.4414 22.9287ZM101.203 32L97.9014 22.9287L97.8809 22.0469H98.749L102.557 32H101.203ZM101.032 28.3154V29.3955H95.4404V28.3154H101.032ZM105.305 22.0469V32H103.985V22.0469H105.305ZM112.849 20.926H119.247V28.374H118.197V21.85H113.857V28.374H112.849V20.926ZM115.929 28.15H116.909V31.622C116.909 32.014 117.021 32.112 117.413 32.112H118.547C119.051 32.112 119.107 31.734 119.177 29.732C119.429 29.942 119.779 30.082 120.045 30.152C119.919 32.35 119.751 32.924 118.547 32.924H117.273C116.321 32.924 115.929 32.658 115.929 31.72V28.15ZM115.467 22.914H116.475V25.672C116.475 28.094 115.845 31.202 112.163 33.134C112.051 32.924 111.715 32.518 111.505 32.35C115.033 30.516 115.467 27.842 115.467 25.644V22.914ZM107.431 22.648H111.421V23.614H107.431V22.648ZM109.195 26.778L110.203 25.588V33.12H109.195V26.778ZM110.217 25.826C110.595 26.19 111.925 27.744 112.233 28.108L111.561 28.948C111.155 28.304 110.063 26.876 109.601 26.344L110.217 25.826ZM111.127 22.648H111.337L111.533 22.606L112.093 22.998C111.197 25.49 109.321 27.842 107.571 29.158C107.487 28.864 107.249 28.332 107.095 28.136C108.719 27.016 110.399 24.916 111.127 22.872V22.648ZM108.705 20.744L109.503 20.282C110.049 20.8 110.595 21.528 110.847 22.032L109.993 22.578C109.755 22.06 109.209 21.29 108.705 20.744ZM127.801 21.08H133.849V22.004H127.801V21.08ZM130.587 21.612L131.553 21.864C131.259 22.606 130.965 23.418 130.713 23.95L129.859 23.726C130.111 23.138 130.419 22.228 130.587 21.612ZM128.151 23.488H133.443V30.054H132.491V24.3H129.047V30.082H128.151V23.488ZM130.363 24.986H131.245C131.203 30.194 130.937 32.14 127.297 33.176C127.213 32.938 126.975 32.602 126.793 32.42C130.181 31.51 130.321 29.9 130.363 24.986ZM130.727 30.838L131.329 30.25C132.267 30.922 133.485 31.874 134.087 32.49L133.457 33.162C132.869 32.532 131.679 31.538 130.727 30.838ZM124.707 21.99H127.241V22.872H124.707V21.99ZM121.095 24.608H127.577V25.546H121.095V24.608ZM124.273 20.24H125.211V25.14H124.273V20.24ZM122.145 21.472H123.013V25.14H122.145V21.472ZM126.541 26.596L127.451 26.806C126.667 29.998 124.945 32.056 121.781 33.176C121.669 32.91 121.445 32.574 121.221 32.364C124.203 31.426 125.813 29.522 126.541 26.596ZM122.397 26.442L123.293 26.638C122.971 27.786 122.439 28.976 121.837 29.746C121.669 29.606 121.291 29.368 121.067 29.242C121.655 28.528 122.117 27.478 122.397 26.442ZM124.007 25.35H124.973V29.802H124.007V25.35ZM140.989 25.238H142.123V31.762C142.123 32.434 141.955 32.756 141.465 32.938C140.961 33.092 140.135 33.106 138.903 33.106C138.847 32.798 138.679 32.336 138.511 32.014C139.463 32.042 140.387 32.042 140.653 32.028C140.919 32.028 140.989 31.958 140.989 31.734V25.238ZM137.811 27.1L138.903 27.38C138.217 29.102 137.111 30.782 135.991 31.86C135.781 31.664 135.305 31.37 135.025 31.216C136.173 30.222 137.209 28.682 137.811 27.1ZM144.111 27.52L145.077 27.114C146.113 28.43 147.205 30.208 147.611 31.398L146.561 31.86C146.183 30.698 145.133 28.864 144.111 27.52ZM136.635 21.29H146.477V22.326H136.635V21.29ZM135.375 24.678H147.723V25.728H135.375V24.678ZM152.833 20.968H157.915V21.906H152.833V20.968ZM154.205 23.894H156.879V24.832H153.911L154.205 23.894ZM153.393 27.072L153.841 26.274C154.611 26.778 155.535 27.506 155.969 27.982L155.507 28.892C155.073 28.36 154.163 27.604 153.393 27.072ZM157.999 21.836H158.951V29.914H157.999V21.836ZM160.547 20.464H161.541V31.804C161.541 32.476 161.373 32.77 160.967 32.938C160.561 33.106 159.861 33.134 158.769 33.134C158.713 32.868 158.559 32.406 158.419 32.112C159.259 32.14 160.001 32.126 160.239 32.126C160.463 32.112 160.547 32.042 160.547 31.804V20.464ZM154.191 21.29L155.213 21.43C154.835 23.852 154.121 26.806 152.609 28.584C152.455 28.374 152.161 28.038 151.951 27.856C153.323 26.218 153.939 23.446 154.191 21.29ZM156.473 23.894H156.669L156.851 23.852L157.453 24.048C156.907 28.612 155.367 31.622 153.211 33.162C153.071 32.91 152.735 32.518 152.525 32.364C154.583 30.95 156.011 28.206 156.473 24.118V23.894ZM151.797 20.296L152.777 20.576C151.979 22.984 150.733 25.434 149.347 27.058C149.249 26.82 148.969 26.246 148.787 25.994C150.019 24.594 151.125 22.452 151.797 20.296ZM150.677 23.754L151.615 22.802L151.643 22.83V33.12H150.677V23.754ZM164.873 21.5V22.375C164.873 22.6484 164.825 22.9378 164.729 23.2432C164.638 23.5439 164.504 23.8356 164.326 24.1182C164.148 24.3962 163.934 24.64 163.684 24.8496L162.959 24.3506C163.173 24.0498 163.335 23.7422 163.444 23.4277C163.558 23.1087 163.615 22.7646 163.615 22.3955V21.5H164.873ZM166.972 21.5V22.375C166.972 22.6484 166.924 22.9378 166.828 23.2432C166.737 23.5439 166.603 23.8356 166.425 24.1182C166.247 24.3962 166.033 24.64 165.782 24.8496L165.058 24.3506C165.272 24.0498 165.434 23.7422 165.543 23.4277C165.657 23.1087 165.714 22.7646 165.714 22.3955V21.5H166.972ZM177.241 28.626C176.821 26.288 180.111 25.672 180.111 24.076C180.111 23.11 179.425 22.41 177.997 22.41C177.031 22.41 176.149 22.83 175.337 23.67L174.595 22.984C175.519 22.004 176.611 21.346 178.123 21.346C180.097 21.346 181.371 22.368 181.371 23.978C181.371 26.092 178.025 26.526 178.389 28.626H177.241ZM177.843 32.07C177.339 32.07 176.947 31.72 176.947 31.16C176.947 30.6 177.353 30.222 177.843 30.222C178.333 30.222 178.739 30.6 178.739 31.16C178.739 31.72 178.333 32.07 177.843 32.07Z" fill="black"/>
    </g>
    <g filter="url(#filter0_d_289_58)">
        <rect x="126" y="46" width="44" height="24" rx="2" fill="white"/>
        <rect x="126.5" y="46.5" width="43" height="23" rx="1.5" stroke="#D9D9D9"/>
        <path d="M141.658 60.564V61.558C141.224 61.67 140.804 61.768 140.384 61.866V64.4H139.404V62.09C137.948 62.398 136.45 62.664 134.882 62.888L134.644 61.908C135.064 61.852 135.484 61.782 135.904 61.726V53.06H134.798V52.108H141.462V52.864H146.88V53.788C146.572 56.378 145.928 58.59 144.962 60.424C145.634 61.572 146.474 62.636 147.468 63.602L146.796 64.372C145.858 63.406 145.074 62.398 144.43 61.348C143.674 62.524 142.778 63.532 141.728 64.358L141.042 63.574C142.176 62.678 143.114 61.614 143.87 60.354C142.834 58.366 142.218 56.196 142.022 53.844H141.462V53.06H140.384V60.872C140.818 60.774 141.238 60.676 141.658 60.564ZM142.946 53.844C143.114 55.86 143.604 57.694 144.402 59.36C145.158 57.764 145.676 55.93 145.928 53.844H142.946ZM139.404 61.096V59.192H136.884V61.572C137.738 61.432 138.578 61.264 139.404 61.096ZM136.884 58.282H139.404V56.154H136.884V58.282ZM136.884 55.23H139.404V53.06H136.884V55.23ZM156.344 51.604H157.38V55.426H160.404V62.93C160.404 63.854 159.956 64.316 159.088 64.316H157.45L157.184 63.336L158.752 63.364C159.186 63.364 159.41 63.14 159.41 62.706V61.334H154.356V64.33H153.348V55.426H156.344V51.604ZM154.356 58.87V60.466H159.41V58.87H154.356ZM159.41 58.002V56.392H154.356V58.002H159.41ZM153.558 51.968C154.09 52.696 154.594 53.494 155.084 54.362L154.272 54.754C153.796 53.872 153.278 53.074 152.718 52.374L153.558 51.968ZM160.18 51.898L161.006 52.29C160.586 53.186 160.04 54.04 159.368 54.866L158.57 54.46C159.242 53.592 159.788 52.738 160.18 51.898ZM151.262 58.828L152.144 59.178C151.444 60.97 150.688 62.664 149.848 64.246L148.924 63.84C149.82 62.202 150.59 60.536 151.262 58.828ZM149.89 51.772C150.856 52.472 151.668 53.172 152.326 53.872L151.612 54.586C151.024 53.914 150.212 53.214 149.176 52.458L149.89 51.772ZM149.484 55.062C150.408 55.762 151.164 56.462 151.78 57.162L151.066 57.876C150.506 57.218 149.75 56.504 148.77 55.748L149.484 55.062Z" fill="black"/>
    </g>
    <g filter="url(#filter1_d_289_58)">
        <rect x="178" y="47" width="42" height="22" rx="2" fill="#2A92DE"/>
        <path d="M192.336 58.38V59.808C192.336 59.92 192.322 60.046 192.322 60.172H194.142V58.38H192.336ZM192.252 61.054C192.084 62.37 191.692 63.462 191.048 64.358L190.32 63.7C191.02 62.692 191.37 61.404 191.398 59.864V55.272C191.188 55.468 190.978 55.664 190.782 55.832L190.152 55.09C191.258 54.18 192.168 52.99 192.882 51.534L193.848 51.744C193.708 52.038 193.554 52.318 193.414 52.598H196.788V53.312C196.368 53.928 195.948 54.46 195.528 54.88H197.88V63.266C197.88 63.896 197.516 64.218 196.802 64.218H195.766L195.528 63.308C195.878 63.336 196.2 63.364 196.508 63.364C196.788 63.364 196.928 63.21 196.928 62.93V61.054H195.052V64.148H194.142V61.054H192.252ZM194.436 54.88C194.842 54.46 195.234 53.984 195.626 53.452H192.896C192.546 53.97 192.168 54.446 191.776 54.88H194.436ZM196.928 60.172V58.38H195.052V60.172H196.928ZM196.928 57.484V55.776H195.052V57.484H196.928ZM194.142 55.776H192.336V57.484H194.142V55.776ZM185.938 52.346H190.614V53.326H188.5C188.318 54.46 188.052 55.524 187.716 56.504H190.264V62.874H187.814V63.938H186.862V58.45C186.624 58.884 186.372 59.29 186.12 59.682L185.532 58.744C186.54 57.162 187.198 55.356 187.52 53.326H185.938V52.346ZM187.814 61.964H189.34V57.428H187.814V61.964ZM207.778 51.632H208.814C208.814 52.808 208.772 53.914 208.688 54.922C209.43 58.506 210.718 61.362 212.552 63.462L211.824 64.302C210.326 62.398 209.192 60.046 208.408 57.274C208.338 57.666 208.268 58.03 208.198 58.394C207.666 60.802 206.476 62.79 204.614 64.33L203.928 63.504C205.552 62.132 206.644 60.41 207.176 58.324C207.568 56.574 207.778 54.348 207.778 51.632ZM201.268 51.702C202.22 52.416 203.018 53.13 203.662 53.858L202.976 54.558C202.388 53.872 201.576 53.144 200.568 52.388L201.268 51.702ZM199.63 55.846H202.654V61.964C203.158 61.544 203.704 61.068 204.278 60.522L204.53 61.558C203.662 62.384 202.738 63.126 201.758 63.77L201.366 62.874C201.576 62.706 201.688 62.496 201.688 62.272V56.812H199.63V55.846Z" fill="white"/>
    </g>
    <defs>
        <filter id="filter0_d_289_58" x="126" y="46" width="44" height="26" filterUnits="userSpaceOnUse" color-interpolation-filters="sRGB">
            <feFlood flood-opacity="0" result="BackgroundImageFix"/>
            <feColorMatrix in="SourceAlpha" type="matrix" values="0 0 0 0 0 0 0 0 0 0 0 0 0 0 0 0 0 0 127 0" result="hardAlpha"/>
            <feOffset dy="2"/>
            <feColorMatrix type="matrix" values="0 0 0 0 0 0 0 0 0 0 0 0 0 0 0 0 0 0 0.016 0"/>
            <feBlend mode="normal" in2="BackgroundImageFix" result="effect1_dropShadow_289_58"/>
            <feBlend mode="normal" in="SourceGraphic" in2="effect1_dropShadow_289_58" result="shape"/>
        </filter>
        <filter id="filter1_d_289_58" x="178" y="47" width="42" height="24" filterUnits="userSpaceOnUse" color-interpolation-filters="sRGB">
            <feFlood flood-opacity="0" result="BackgroundImageFix"/>
            <feColorMatrix in="SourceAlpha" type="matrix" values="0 0 0 0 0 0 0 0 0 0 0 0 0 0 0 0 0 0 127 0" result="hardAlpha"/>
            <feOffset dy="2"/>
            <feColorMatrix type="matrix" values="0 0 0 0 0 0 0 0 0 0 0 0 0 0 0 0 0 0 0.043 0"/>
            <feBlend mode="normal" in2="BackgroundImageFix" result="effect1_dropShadow_289_58"/>
            <feBlend mode="normal" in="SourceGraphic" in2="effect1_dropShadow_289_58" result="shape"/>
        </filter>
        <clipPath id="clip0_289_58">
            <rect width="204" height="22" fill="white" transform="translate(16 16)"/>
        </clipPath>
    </defs>
</svg>
