<svg width="845" height="375" viewBox="0 0 845 375" fill="none" xmlns="http://www.w3.org/2000/svg">
    <g clip-path="url(#clip0_262_707)">
        <g filter="url(#filter0_d_262_707)">
            <rect x="36" width="809" height="375" rx="20" fill="white"/>
        </g>
        <path d="M806 10.25C797.302 10.25 790.25 17.3023 790.25 26C790.25 34.6977 797.302 41.75 806 41.75C814.698 41.75 821.75 34.6977 821.75 26C821.75 17.3023 814.698 10.25 806 10.25ZM811.815 31.9836L809.495 31.973L806 27.807L802.509 31.9695L800.185 31.9801C800.03 31.9801 799.904 31.857 799.904 31.6988C799.904 31.632 799.929 31.5688 799.971 31.516L804.545 26.0668L799.971 20.6211C799.928 20.5696 799.905 20.5051 799.904 20.4383C799.904 20.2836 800.03 20.157 800.185 20.157L802.509 20.1676L806 24.3336L809.491 20.1711L811.811 20.1605C811.966 20.1605 812.093 20.2836 812.093 20.4418C812.093 20.5086 812.068 20.5719 812.026 20.6246L807.459 26.0703L812.029 31.5195C812.071 31.5723 812.096 31.6355 812.096 31.7023C812.096 31.857 811.97 31.9836 811.815 31.9836Z" fill="black" fill-opacity="0.3"/>
        <mask id="mask0_262_707" style="mask-type:alpha" maskUnits="userSpaceOnUse" x="36" y="0" width="809" height="375">
            <rect x="36" width="809" height="375" rx="20" fill="white"/>
        </mask>
        <g mask="url(#mask0_262_707)">
            <g filter="url(#filter1_f_262_707)">
                <ellipse cx="236.5" cy="223.958" rx="236.5" ry="223.958" transform="matrix(-1 0 0 1 393 -47)" fill="url(#paint0_linear_262_707)" fill-opacity="0.4"/>
            </g>
        </g>
        <path d="M418.036 86.652H430.024V89.676H418.036V86.652ZM418.648 91.296H429.376V99.18H418.648V91.296ZM425.884 96.372V94.14H422.14V96.372H425.884ZM442.12 81.252V84.636H434.344C434.488 86.724 434.74 88.416 435.064 89.784C435.208 90.576 435.388 91.26 435.568 91.872C436.504 90.108 437.332 88.128 438.052 85.896L440.896 87.408C439.852 90.72 438.592 93.456 437.08 95.688C437.764 96.768 438.376 97.344 438.952 97.344C439.492 97.344 440.104 95.976 440.752 93.312L443.74 95.076C442.552 98.892 441.076 100.836 439.312 100.836C437.872 100.836 436.504 100.08 435.208 98.604C435.1 98.496 435.028 98.424 434.992 98.352C433.912 99.432 432.796 100.332 431.644 101.052L429.736 98.136C430.996 97.416 432.148 96.444 433.192 95.292C432.688 94.212 432.22 92.988 431.86 91.656C431.356 89.784 430.996 87.444 430.816 84.636H416.956V88.632C416.812 93.564 415.552 97.524 413.14 100.512L410.332 97.992C412.204 95.76 413.212 92.628 413.284 88.632V81.252H430.636C430.6 80.316 430.6 79.308 430.6 78.3H434.164C434.164 79.308 434.164 80.316 434.2 81.252H436.792C436.576 80.424 436.324 79.632 436.072 78.912L439.384 78.336C439.6 79.2 439.78 80.172 439.996 81.252H442.12ZM414.112 100.908L417.532 101.664C416.632 105.12 415.372 108.108 413.752 110.628L410.584 108.576C412.24 106.164 413.392 103.608 414.112 100.908ZM431.968 111.168H422.896C420.376 111.168 419.152 109.8 419.152 107.064V100.584H422.968V106.272C422.968 107.208 423.292 107.676 424.012 107.676H431.248C431.752 107.676 432.112 107.496 432.328 107.136C432.58 106.776 432.76 105.66 432.868 103.824L436.468 104.976C436.18 108 435.676 109.8 434.992 110.376C434.308 110.88 433.3 111.168 431.968 111.168ZM439.204 101.484C441.148 103.86 442.66 105.948 443.704 107.748L440.716 109.836C439.6 107.892 438.088 105.732 436.144 103.356L439.204 101.484ZM427.612 99.864C429.16 101.664 430.348 103.212 431.212 104.544L428.404 106.488C427.54 105.048 426.316 103.392 424.804 101.592L427.612 99.864ZM461.128 89.46V91.584H465.34V89.46H461.128ZM465.34 86.58V84.42H461.128V86.58H465.34ZM461.128 94.464V96.696H465.34V94.464H461.128ZM455.98 96.696H457.78V81.468H460.66C461.02 80.352 461.272 79.2 461.452 78.012L465.088 78.516C464.872 79.56 464.584 80.532 464.224 81.468H468.724V107.82C468.724 110.34 467.536 111.636 465.232 111.636H462.424L461.524 108.36L464.188 108.504C464.944 108.504 465.34 108 465.34 107.064V100.872C463.684 104.76 461.164 108.036 457.816 110.7L455.944 107.532C458.932 105.516 461.164 102.996 462.64 99.936H455.98V96.696ZM469.624 84.816H474.196V78.516H477.688V84.816H479.848V88.308H477.688V107.964C477.688 110.412 476.572 111.636 474.376 111.636H471.136L470.344 108.252C471.316 108.396 472.252 108.468 473.152 108.468C473.836 108.468 474.196 108 474.196 107.064V99.54L471.676 100.8C470.812 97.776 469.876 95.076 468.796 92.7L471.676 91.404C472.612 93.6 473.476 95.976 474.196 98.532V88.308H469.624V84.816ZM451.264 78.696C453.388 80.46 455.188 82.224 456.664 83.952L454.108 86.544C452.812 84.888 450.976 83.124 448.6 81.252L451.264 78.696ZM446.296 89.064H454.288V103.572C455.008 102.888 455.728 102.168 456.484 101.376L457.456 105.084C455.512 107.028 453.46 108.792 451.264 110.376L449.896 107.1C450.4 106.596 450.688 106.02 450.688 105.3V92.664H446.296V89.064ZM501.916 98.748H499.108L498.28 95.292C499.144 95.436 499.936 95.544 500.692 95.544C501.232 95.544 501.52 95.076 501.52 94.14V86.076H505.264V95.04C505.264 97.488 504.148 98.748 501.916 98.748ZM486.616 89.64C485.86 90.432 485.104 91.152 484.384 91.836L482.008 88.956C484.96 86.508 487.516 82.98 489.748 78.408L493.42 79.236C492.448 81.288 491.404 83.196 490.288 84.924V98.64H486.616V89.64ZM497.884 78.372L501.448 79.2C501.088 79.956 500.728 80.676 500.368 81.396H514.372V83.7C513.904 85.5 513.328 87.264 512.608 89.028L509.296 88.092C509.8 87.12 510.268 86.004 510.628 84.78H498.316C496.984 86.724 495.544 88.38 493.996 89.82L491.692 87.012C494.068 84.96 496.12 82.08 497.884 78.372ZM485.932 100.152L489.568 100.872C488.704 104.472 487.48 107.568 485.896 110.232L482.728 108.18C484.24 105.66 485.284 102.96 485.932 100.152ZM504.22 111.24H495.148C492.556 111.24 491.296 109.836 491.296 107.064V99.864H495.112V106.272C495.112 107.208 495.508 107.676 496.3 107.676H503.536C504.112 107.676 504.544 107.46 504.868 107.064C505.228 106.632 505.444 105.408 505.552 103.32L509.116 104.472C508.828 107.784 508.288 109.728 507.496 110.34C506.776 110.916 505.696 111.24 504.22 111.24ZM510.772 98.82C513.04 101.988 514.768 104.724 515.992 107.1L512.86 109.296C511.564 106.704 509.872 103.86 507.712 100.728L510.772 98.82ZM496.912 89.1L499.9 90.576C498.604 93.312 497.092 95.652 495.292 97.668L492.448 95.652C494.176 93.816 495.688 91.62 496.912 89.1ZM509.872 89.064C511.6 91.188 513.112 93.528 514.444 96.12L511.24 97.776C509.872 95.04 508.396 92.592 506.776 90.468L509.872 89.064ZM500.044 98.928C501.7 100.872 502.996 102.6 503.86 104.112L500.944 106.128C500.008 104.508 498.748 102.708 497.164 100.728L500.044 98.928ZM529.312 81.72H538.168V78.444H541.948V81.72H551.524V85.284H541.948V87.876H550.192V98.82H541.768C541.48 101.628 540.976 103.86 540.184 105.516C543.532 107.208 547.384 108.18 551.704 108.396L550.804 111.996C545.98 111.672 541.732 110.484 538.06 108.468C536.08 110.268 533.056 111.42 529.024 111.96L527.404 108.54C530.608 108.288 533.056 107.532 534.712 106.272C532.804 104.832 531.076 103.176 529.564 101.304L532.444 99.324C533.776 100.944 535.252 102.348 536.872 103.5C537.412 102.276 537.772 100.692 537.988 98.82H530.248V87.876H538.168V85.284H529.312V81.72ZM546.664 95.472V91.224H541.948V95.472H546.664ZM538.168 95.472V91.224H533.776V95.472H538.168ZM522.076 93.24C521.176 94.392 520.24 95.472 519.232 96.552L518.008 92.556C521.464 88.452 524.02 83.664 525.676 78.12L529.24 79.776C528.376 82.512 527.26 85.104 525.856 87.624V111.816H522.076V93.24ZM561.316 91.728V96.912H569.236V91.728H561.316ZM561.136 100.368C560.668 104.832 559.336 108.576 557.14 111.528L554.26 108.936C556.384 105.912 557.464 102.06 557.536 97.38V79.56H585.436V106.74C585.436 109.512 583.996 110.916 581.152 110.916H577.012L576.004 107.244C577.444 107.388 578.74 107.46 579.964 107.46C581.044 107.46 581.62 106.74 581.62 105.372V100.368H573.052V110.52H569.236V100.368H561.136ZM581.62 96.912V91.728H573.052V96.912H581.62ZM581.62 88.272V83.232H573.052V88.272H581.62ZM569.236 83.232H561.316V88.272H569.236V83.232ZM599.944 78.732L603.436 80.172C600.916 87.66 597.568 93.384 593.428 97.38L590.44 94.788C594.724 90.756 597.892 85.392 599.944 78.732ZM613.984 97.812C616.504 101.664 618.7 105.804 620.536 110.196L617.008 111.78C616.54 110.628 616.072 109.512 615.604 108.432C609.412 109.368 602.464 110.052 594.796 110.556L594.148 106.884C596.56 106.344 600.124 100.908 604.804 90.576L608.512 91.872C605.704 97.668 602.824 102.636 599.872 106.74C604.696 106.416 609.448 105.912 614.056 105.192C612.94 102.924 611.788 100.836 610.6 98.964L613.984 97.812ZM613.372 78.444C615.316 84.924 618.736 90.216 623.632 94.32L620.932 97.452C615.784 93.024 612.184 87.3 610.132 80.244L613.372 78.444ZM641.596 78.588H644.404C648.724 83.844 653.728 87.984 659.416 91.008L657.436 94.5C651.784 91.332 646.96 87.156 643 82.008C639.292 86.832 634.396 90.972 628.312 94.464L626.404 90.972C632.488 87.66 637.564 83.52 641.596 78.588ZM634.612 91.188H638.176C638.176 93.744 637.996 96.048 637.672 98.136C639.796 100.008 641.596 101.916 643.108 103.788L640.408 106.488C639.472 104.976 638.284 103.392 636.844 101.736C636.808 101.772 636.808 101.808 636.808 101.844C635.728 105.588 633.1 108.684 628.924 111.132L626.584 108.288C630.04 106.236 632.272 103.752 633.316 100.836C634.144 98.352 634.576 95.148 634.612 91.188ZM647.212 90.864H650.812C650.812 93.024 650.704 95.04 650.488 96.84C652.18 101.628 655.204 105.444 659.524 108.288L657.112 111.132C653.836 108.72 651.28 105.84 649.408 102.456C648.328 106.02 646.024 108.972 642.496 111.348L640.192 108.54C643.216 106.416 645.16 103.86 646.096 100.836C646.816 98.28 647.176 94.968 647.212 90.864ZM675.436 78.516H679.252V82.44C679.216 83.448 679.18 84.456 679.108 85.392H692.788C692.644 91.8 692.428 96.948 692.068 100.872C691.708 104.76 691.06 107.496 690.196 109.08C689.332 110.556 687.964 111.348 686.056 111.492H680.944L679.936 107.856C681.448 107.928 682.852 108 684.22 108C686.056 108 687.244 106.812 687.82 104.508C688.396 102.096 688.792 96.948 688.972 89.064H678.784C678.208 94.032 677.128 98.208 675.58 101.556C673.42 105.984 669.928 109.404 665.104 111.78L663.088 108.576C667.84 105.984 671.044 102.744 672.7 98.82C673.78 96.084 674.536 92.808 674.968 89.064H665.032V85.392H675.292C675.364 84.42 675.4 83.448 675.436 82.44V78.516ZM715.612 78.012C716.116 79.128 716.584 80.388 717.016 81.792H729.436V85.356H723.46C723.1 86.868 722.632 88.308 722.056 89.748H730.192V93.384H704.776V98.064C704.632 103.716 703.372 108.252 700.924 111.672L698.08 109.116C699.916 106.452 700.888 102.78 700.96 98.064V89.748H708.196L707.008 85.356H700.672V81.792H713.164C712.696 80.64 712.192 79.596 711.652 78.66L715.612 78.012ZM711.904 89.748H718.42C719.032 88.308 719.5 86.868 719.86 85.356H710.716L711.904 89.748ZM740.668 79.56H761.368V92.412H740.668V79.56ZM757.588 88.884V83.088H744.448V88.884H757.588ZM749.38 94.788V111.204H745.744V109.512H739.48V111.204H735.808V94.788H749.38ZM739.48 106.02H745.744V98.316H739.48V106.02ZM766.192 94.788V111.204H762.448V109.512H755.86V111.204H752.188V94.788H766.192ZM755.86 106.02H762.448V98.316H755.86V106.02ZM775.588 82.296H780.448L779.548 100.62H776.488L775.588 82.296ZM778 102.564C778.792 102.564 779.476 102.816 780.016 103.32C780.52 103.824 780.808 104.472 780.808 105.264C780.808 106.056 780.52 106.74 780.016 107.244C779.44 107.748 778.792 108 778 108C777.208 108 776.56 107.712 776.056 107.208C775.48 106.704 775.228 106.056 775.228 105.264C775.228 104.472 775.48 103.824 776.056 103.32C776.56 102.816 777.208 102.564 778 102.564Z" fill="#2D2E41"/>
        <path d="M531.592 145.424V164.56L533.544 163.952V167.12C529.32 168.528 524.456 169.808 518.984 171.024L518.056 167.824L520.264 167.376V145.424H531.592ZM523.56 166.672C525.224 166.288 526.824 165.872 528.36 165.488V161.904H523.56V166.672ZM523.56 158.928H528.36V155.056H523.56V158.928ZM523.56 152.048H528.36V148.464H523.56V152.048ZM536.584 143.856H539.912V149.936H546.824C546.824 160.496 546.664 167.024 546.344 169.52C545.96 171.888 544.328 173.072 541.384 173.072C540.872 173.072 539.976 173.008 538.728 172.912L537.928 170C539.048 170.064 540.008 170.128 540.84 170.128C542.184 170.128 542.984 169.424 543.208 168.016C543.4 166.576 543.496 161.616 543.56 153.136H539.912V153.392C539.816 162.608 537.608 169.328 533.288 173.584L530.76 171.344C534.568 167.632 536.52 161.648 536.584 153.392V153.136H533.064V149.936H536.584V143.856ZM553.768 156.816C552.904 157.84 552.008 158.864 551.048 159.856L549.928 156.272C553.224 152.656 555.656 148.4 557.256 143.504L560.36 144.976C559.528 147.472 558.44 149.84 557.096 152.08V173.328H553.768V156.816ZM575.688 156.464C577.192 160.176 578.504 164.176 579.592 168.4L576.648 169.712C575.496 165.104 574.184 161.008 572.744 157.456L575.688 156.464ZM564.264 150.48C563.304 152.816 562.216 154.96 561 156.88L558.12 155.088C560.488 151.536 562.152 147.76 563.112 143.76L566.248 144.432C565.992 145.392 565.704 146.352 565.416 147.28H578.76V149.456C578.28 151.376 577.672 153.264 576.936 155.152L573.736 154.224C574.376 153.136 574.888 151.888 575.336 150.48H564.264ZM567.816 173.104H563.752L563.016 169.968C564.296 170.096 565.544 170.192 566.696 170.192C567.464 170.192 567.848 169.776 567.848 168.976V152.688H571.08V169.776C571.08 171.984 569.992 173.104 567.816 173.104ZM562.6 156.816L565.608 157.648C564.488 162.032 563.048 165.872 561.32 169.168L558.184 168.048C559.848 165.104 561.32 161.36 562.6 156.816ZM586.248 173.04H583.432L582.696 169.808C583.528 169.936 584.328 170 585.096 170C585.8 170 586.152 169.616 586.152 168.912V162.48C585.128 162.864 584.072 163.248 582.984 163.6L582.152 160.208C583.496 159.888 584.84 159.504 586.152 159.056V152.72H582.664V149.488H586.152V143.824H589.544V149.488H592.392V152.72H589.544V157.648C590.312 157.264 591.08 156.848 591.848 156.464V159.856L589.544 161.008V169.776C589.544 171.952 588.424 173.04 586.248 173.04ZM594.472 144.688H609V156.368H594.472V144.688ZM605.736 153.68V151.76H597.704V153.68H605.736ZM597.704 149.264H605.736V147.376H597.704V149.264ZM592.424 157.84H610.888V160.816H603.336V163.472H609.448V166.416H603.336V169.52C604.488 169.648 605.8 169.744 607.304 169.744C609.064 169.744 610.568 169.648 611.784 169.52L610.856 172.752C609.64 172.752 608.52 172.72 607.528 172.688C603.24 172.656 600.328 172.272 598.728 171.504C597.64 170.96 596.68 170 595.784 168.624C595.08 170.288 594.184 171.856 593.064 173.328L590.568 171.152C592.808 168.336 594.056 165.2 594.312 161.744L597.256 162.096C597.192 163.248 597.032 164.336 596.808 165.36C597.768 167.088 598.824 168.208 600.04 168.72C600.04 168.72 600.072 168.752 600.104 168.752V160.816H592.424V157.84ZM629.32 143.728L630.92 146.416C629.128 147.216 627.272 147.888 625.416 148.432V155.504H632.968V144.016H636.328V155.504H643.336V158.768H636.328V173.328H632.968V158.768H625.352C624.872 165.392 622.216 170.288 617.416 173.456L614.92 171.216C619.176 168.56 621.512 164.4 621.96 158.768H614.632V155.504H622.024V149.264C620.168 149.616 618.28 149.872 616.36 150.032L615.304 146.992C621.16 146.384 625.832 145.296 629.32 143.728ZM659.336 149.072H648.712V145.872H673.384V149.072H662.728V168.208H675.336V171.44H646.696V168.208H659.336V149.072ZM692.936 151.152C691.464 154.224 689.832 156.848 688.04 159.024L685.64 156.144C688.2 153.136 690.44 148.912 692.36 143.408L695.752 144.176C695.304 145.456 694.856 146.672 694.408 147.856H707.304V151.152H697.256V155.408H706.088V158.672H697.256V163.056H706.088V166.288H697.256V173.424H693.864V151.152H692.936ZM681.736 156.688C680.872 157.712 679.976 158.704 679.016 159.664L677.896 156.08C681.128 152.528 683.528 148.336 685.096 143.536L688.264 145.008C687.464 147.408 686.408 149.712 685.128 151.888V173.424H681.736V156.688ZM714.44 150.736L717.32 152.144C715.944 155.088 714.344 157.648 712.488 159.824L709.8 157.904C711.592 155.92 713.16 153.552 714.44 150.736ZM722.888 157.136C721.64 155.536 720.264 154 718.728 152.496L720.744 150.512C721.96 151.504 723.4 152.976 725.096 154.96L722.888 157.136ZM715.144 158.448C716.264 159.344 717.352 160.24 718.376 161.168C719.016 159.888 719.56 158.512 720.008 157.072L722.92 158.352C722.344 160.24 721.672 161.968 720.904 163.536C722.12 164.72 723.304 165.936 724.392 167.216L722.056 169.84C721.096 168.688 720.104 167.6 719.144 166.576C717.224 169.328 714.824 171.536 711.944 173.2L709.864 170.16C712.616 168.688 714.888 166.64 716.68 164.08C715.464 162.896 714.28 161.808 713.064 160.816L715.144 158.448ZM718.568 143.536C719.016 144.496 719.432 145.552 719.816 146.736H725.672V149.968H710.568V146.736H716.52C716.072 145.808 715.624 144.944 715.112 144.112L718.568 143.536ZM730.184 151.792C729.992 152.368 729.768 152.976 729.576 153.552C730.216 156.24 731.048 158.672 732.008 160.848C733.192 158.192 733.864 155.184 734.056 151.792H730.184ZM730.216 164.048C729.256 162.096 728.424 159.984 727.72 157.68C727.24 158.512 726.728 159.312 726.216 160.048L724.136 157.456C726.312 154.032 727.816 149.424 728.584 143.6L731.88 144.176C731.624 145.712 731.368 147.152 731.048 148.528H739.496V151.792H737.128C736.872 156.592 735.784 160.752 733.864 164.272C735.592 166.928 737.64 168.976 740.04 170.416L738.024 173.36C735.688 171.856 733.672 169.776 731.976 167.152C729.992 169.68 727.464 171.792 724.392 173.52L722.504 170.448C725.768 168.848 728.36 166.704 730.216 164.048ZM743.016 146.128H755.112C754.728 145.36 754.312 144.624 753.864 143.984L757.256 143.408C757.64 144.208 758.056 145.104 758.472 146.128H770.984V149.264H757.672C756.968 150.64 756.168 151.824 755.336 152.784L758.088 152.528C758.728 151.696 759.4 150.832 760.104 149.936L763.112 151.088C760.296 154.48 757.864 157.104 755.784 158.96L759.912 158.384C759.624 157.712 759.336 157.104 759.048 156.56L761.864 155.632C762.888 157.392 763.752 159.28 764.52 161.328L761.544 162.672C761.32 162.032 761.096 161.424 760.904 160.848C760.136 160.976 759.4 161.072 758.696 161.2V164.048H771.496V167.216H758.696V173.456H755.304V167.216H742.568V164.048H755.304V161.616C753.96 161.744 752.616 161.872 751.24 161.968L750.568 159.056C750.92 158.992 751.272 158.896 751.656 158.8C752.68 158.288 754.056 157.136 755.72 155.28C754.312 155.408 752.84 155.504 751.304 155.632L750.696 153.008C752.104 152.4 753.288 151.152 754.248 149.264H743.016V146.128ZM748.136 155.952L750.632 157.808C748.968 159.792 747.24 161.456 745.448 162.768L743.208 160.272C745.032 159.056 746.664 157.616 748.136 155.952ZM745.768 149.648C747.56 150.864 749.096 152.144 750.344 153.424L748.04 155.728C746.952 154.512 745.448 153.232 743.496 151.856L745.768 149.648ZM765.864 155.92C767.816 157.424 769.48 158.928 770.824 160.432L768.36 162.864C767.272 161.328 765.736 159.696 763.752 157.936L765.864 155.92ZM767.56 149.552L770.152 151.472C768.744 153.168 767.24 154.576 765.672 155.696L763.56 153.328C765.032 152.24 766.344 150.992 767.56 149.552ZM778.856 147.152H783.176L782.376 163.44H779.656L778.856 147.152ZM781 165.168C781.704 165.168 782.312 165.392 782.792 165.84C783.24 166.288 783.496 166.864 783.496 167.568C783.496 168.272 783.24 168.88 782.792 169.328C782.28 169.776 781.704 170 781 170C780.296 170 779.72 169.744 779.272 169.296C778.76 168.848 778.536 168.272 778.536 167.568C778.536 166.864 778.76 166.288 779.272 165.84C779.72 165.392 780.296 165.168 781 165.168Z" fill="#2D2E41"/>
        <g filter="url(#filter2_b_262_707)">
            <rect y="70" width="309.923" height="211.262" rx="13.9412" fill="url(#paint1_linear_262_707)" fill-opacity="0.6"/>
            <rect x="1" y="71" width="307.923" height="209.262" rx="12.9412" stroke="white" stroke-opacity="0.4" stroke-width="2"/>
        </g>
        <g filter="url(#filter3_b_262_707)">
            <rect x="176.946" y="95.7375" width="79.3575" height="123.326" rx="9.65158" fill="#AADBFF" fill-opacity="0.57"/>
        </g>
        <g filter="url(#filter4_b_262_707)">
            <rect x="56.8369" y="95.7375" width="109.385" height="123.326" rx="10.724" fill="url(#paint2_linear_262_707)" fill-opacity="0.57"/>
        </g>
        <g filter="url(#filter5_b_262_707)">
            <rect x="56.8369" y="228.715" width="199.466" height="39.6787" rx="6.43439" fill="url(#paint3_linear_262_707)" fill-opacity="0.57"/>
        </g>
        <g filter="url(#filter6_b_262_707)">
            <rect x="54.8369" y="76.4344" width="33.2443" height="12.8688" rx="4.28959" fill="#8ED2FF"/>
        </g>
        <circle cx="247.869" cy="82.8688" r="6.43439" fill="#8ED2FF"/>
        <g filter="url(#filter7_bd_262_707)">
            <rect x="55" y="96" width="309.923" height="211.262" rx="10.724" fill="url(#paint4_radial_262_707)" fill-opacity="0.8" shape-rendering="crispEdges"/>
        </g>
        <path d="M94.154 121.862V123.346C93.412 123.598 92.642 123.822 91.83 124.032V126.874C91.83 127.798 91.34 128.274 90.36 128.274H88.778L88.456 126.888C88.946 126.944 89.408 126.972 89.856 126.972C90.178 126.972 90.346 126.804 90.346 126.496V124.382C89.534 124.55 88.708 124.704 87.84 124.844L87.63 123.374C88.582 123.234 89.492 123.066 90.346 122.884V120.476H87.616V119.076H90.346V117.774C89.674 117.914 88.988 118.026 88.26 118.124L87.952 116.738C89.884 116.528 91.62 116.122 93.132 115.506L93.636 116.878C93.062 117.088 92.46 117.27 91.83 117.438V119.076H94.7C94.616 117.998 94.588 116.808 94.588 115.52H96.058C96.072 116.864 96.114 118.04 96.198 119.076H100.384V120.476H96.31C96.394 121.386 96.52 122.128 96.674 122.716C96.73 122.94 96.786 123.136 96.842 123.332C97.416 122.618 97.92 121.82 98.34 120.952L99.6 121.624C98.984 122.884 98.242 123.99 97.388 124.914C97.528 125.25 97.682 125.544 97.836 125.768C98.228 126.384 98.536 126.692 98.732 126.692C98.886 126.692 99.04 125.978 99.208 124.578L100.51 125.264C100.146 127.266 99.628 128.274 98.942 128.274C98.326 128.274 97.682 127.854 97.024 127.028C96.772 126.706 96.534 126.342 96.324 125.922C95.372 126.706 94.308 127.322 93.146 127.77L92.334 126.524C93.622 126.048 94.756 125.376 95.722 124.508C95.568 124.06 95.428 123.598 95.302 123.122C95.092 122.366 94.938 121.484 94.826 120.476H91.83V122.548C92.642 122.338 93.426 122.114 94.154 121.862ZM97.598 115.646C98.578 116.262 99.418 116.878 100.118 117.494L99.068 118.544C98.494 117.928 97.682 117.284 96.618 116.584L97.598 115.646ZM112.368 128.344H111.136L110.744 126.972L112.074 127.014C112.41 127.014 112.578 126.79 112.578 126.342V117.662H109.4V116.248H114.034V126.748C114.034 127.812 113.474 128.344 112.368 128.344ZM107.706 115.492C108.322 116.29 108.784 116.99 109.12 117.592L107.972 118.39C107.636 117.718 107.174 116.99 106.586 116.192L107.706 115.492ZM104.612 115.366L105.942 115.996C105.578 117.074 105.116 118.11 104.542 119.104V128.484H103.086V121.19C102.708 121.652 102.302 122.1 101.882 122.548L101.406 121.05C102.848 119.44 103.912 117.55 104.612 115.366ZM105.83 117.872H107.272V128.456H105.83V117.872ZM115.714 116.248H128.328V117.662H126.592V126.79C126.592 127.826 126.088 128.358 125.108 128.358H122.742L122.406 126.944C123.162 127 123.904 127.028 124.604 127.028C124.94 127.028 125.122 126.818 125.122 126.426V117.662H115.714V116.248ZM122.994 119.342V124.83H118.612V125.95H117.212V119.342H122.994ZM118.612 123.514H121.608V120.644H118.612V123.514ZM134.558 116.934C135.748 118.418 136.658 119.72 137.302 120.826L136.056 121.68C135.384 120.49 134.474 119.16 133.326 117.704L134.558 116.934ZM139.136 124.298C138.24 125.838 136.826 127.182 134.922 128.316L133.928 127.112C136.252 125.74 137.764 124.074 138.464 122.1C139.01 120.42 139.29 118.264 139.318 115.604H140.83C140.83 118.264 140.536 120.532 139.948 122.394C139.892 122.562 139.85 122.716 139.794 122.884C140.858 124.256 141.782 125.642 142.552 127.014L141.404 128.148C140.83 126.93 140.074 125.642 139.136 124.298ZM130.666 127.098L130.176 125.712C130.47 125.46 130.624 125.096 130.624 124.648V115.744H132.136V124.97C133.116 124.564 134.082 124.074 135.048 123.486L135.468 124.914C133.97 125.754 132.374 126.482 130.666 127.098Z" fill="#3DADFF"/>
        <g filter="url(#filter8_d_262_707)">
            <rect x="631" y="267" width="166" height="60" rx="30" fill="#A577FF"/>
            <path d="M700.296 288.576V307.44H697.848V306.12H693.864V307.44H691.44V288.576H700.296ZM693.864 303.792H697.848V290.904H693.864V303.792ZM683.016 291.624C682.488 292.776 681.888 293.832 681.216 294.816L679.008 293.424C680.544 291.168 681.648 288.792 682.272 286.272L684.744 286.824C684.504 287.664 684.264 288.48 684 289.248H690.36V291.624H687.168C687.144 293.016 687.072 294.312 686.952 295.536H690.6V297.912H686.616L686.328 299.352C687.768 300.792 689.232 302.424 690.72 304.2L689.184 306.528C687.768 304.44 686.592 302.832 685.632 301.68C684.624 304.104 682.92 306.192 680.496 307.92L678.864 305.904C681.336 304.056 682.944 301.824 683.712 299.184L684 297.912H679.392V295.536H684.384C684.504 294.336 684.576 293.016 684.624 291.624H683.016ZM709.944 288.696H713.28C712.944 288.12 712.56 287.568 712.176 287.064L714.504 286.2C715.008 286.92 715.488 287.736 715.92 288.696H718.464C719.016 287.88 719.496 287.04 719.928 286.176L722.352 287.04C722.016 287.64 721.656 288.192 721.272 288.696H724.656V291.024H718.176L717.744 292.32H723.144V304.368H711.336V292.32H715.056C715.224 291.888 715.368 291.456 715.464 291.024H709.944V288.696ZM720.792 302.16V300.84H713.664V302.16H720.792ZM713.664 298.872H720.792V297.72H713.664V298.872ZM713.664 295.752H720.792V294.528H713.664V295.752ZM705.336 286.488C706.92 287.76 708.288 289.032 709.392 290.28L707.64 292.008C706.704 290.808 705.36 289.488 703.632 288.096L705.336 286.488ZM719.016 308.112C717.72 308.112 716.304 308.088 714.768 308.064C713.232 308.04 711.96 307.896 710.952 307.656C709.992 307.368 709.152 306.816 708.48 306C708.144 305.592 707.856 305.4 707.568 305.4C707.088 305.4 706.224 306.456 704.976 308.616L703.152 306.912C704.352 304.992 705.456 303.768 706.464 303.24V296.664H703.176V294.36H708.792V303.504L709.032 303.744C709.584 304.368 710.136 304.848 710.688 305.16C711.384 305.52 712.44 305.712 713.832 305.76C715.2 305.784 716.808 305.808 718.656 305.808C719.856 305.808 721.056 305.784 722.304 305.784C723.528 305.736 724.464 305.688 725.112 305.64L724.512 308.112H719.016ZM740.016 289.92H743.376C742.896 289.128 742.32 288.288 741.6 287.4L743.448 286.224C744.36 287.352 745.056 288.336 745.536 289.2L744.504 289.92H748.728V292.224H740.016V289.92ZM739.008 305.208H743.784C744.648 302.016 745.416 298.08 746.04 293.4L748.248 294C747.672 298.176 746.928 301.92 746.04 305.208H749.064V307.608H739.008V305.208ZM742.344 293.76C742.824 296.592 743.232 299.784 743.568 303.384L741.48 303.648C741.096 300.024 740.664 296.808 740.208 294.024L742.344 293.76ZM735.624 308.136H734.112L733.584 305.976C734.016 306.048 734.448 306.096 734.856 306.096C735.432 306.096 735.72 305.832 735.72 305.304V300.12C735.24 300.288 734.736 300.456 734.256 300.6L733.656 298.272C734.352 298.128 735.048 297.936 735.72 297.744V292.824H733.968V290.52H735.72V286.512H738.024V290.52H739.536V292.824H738.024V296.88C738.552 296.64 739.104 296.376 739.632 296.088V298.464C739.104 298.728 738.552 298.968 738.024 299.208V305.88C738.024 307.368 737.208 308.136 735.624 308.136ZM733.44 288.024V306.168H731.184V304.8H729.84V306.744H727.584V288.024H733.44ZM729.84 302.64H731.184V290.184H729.84V302.64Z" fill="white"/>
        </g>
        <path d="M140.9 165.62H159.08V167.7H140.9V165.62ZM166.9 157.92L168.7 159.02C167.78 160.66 166.84 162.02 165.9 163.06C164.98 164.1 163.66 165.24 161.9 166.5L160.76 164.64C162 163.96 163.2 163 164.32 161.74C165.22 160.7 166.08 159.44 166.9 157.92ZM167.44 167.32H163.84V165.3H176C175.92 167.9 175.8 169.98 175.6 171.58C175.4 173.18 175.08 174.28 174.6 174.92C174.14 175.52 173.4 175.86 172.38 175.92H168.54L167.98 173.86C169.16 173.9 170.28 173.94 171.32 173.94C172.3 173.94 172.94 173.52 173.26 172.72C173.58 171.88 173.8 170.08 173.88 167.32H169.56C169.1 169.36 168.48 170.98 167.68 172.2C166.64 173.66 165.1 174.98 163.06 176.14L161.7 174.4C163.5 173.44 164.86 172.38 165.78 171.22C166.48 170.22 167.04 168.92 167.44 167.32ZM173.16 157.68C174.24 160.66 176.26 163.02 179.22 164.74L177.8 166.4C174.72 164.42 172.56 161.86 171.34 158.7L173.16 157.68ZM183.26 157.62L185.22 158.04C185.06 158.62 184.92 159.16 184.76 159.66H188.06V161.56H184.08C183.76 162.3 183.44 163 183.1 163.66H187.82V165.54H185.9V167.42H188.2V169.34H185.9V173.2C186.76 172.9 187.62 172.52 188.48 172.04L188.82 173.86C187.4 174.58 185.76 175.16 183.9 175.64L183.08 173.9C183.6 173.72 183.86 173.46 183.86 173.1V169.34H181.32V167.42H183.86V165.54H182.9V164.02C182.66 164.42 182.44 164.8 182.22 165.16L180.56 164.1C181.84 162.06 182.74 159.9 183.26 157.62ZM192.72 157.64H194.78V160.98H198.68V170.4H196.72V169.46H194.78V176.14H192.72V169.46H190.86V170.4H188.94V160.98H192.72V157.64ZM190.86 167.58H192.72V162.9H190.86V167.58ZM194.78 167.58H196.72V162.9H194.78V167.58ZM209.24 157.52H210.76C213.26 160.32 216.14 162.54 219.42 164.14L218.28 166.16C217.22 165.6 216.22 164.98 215.3 164.32V165.7H204.7V164.3C203.74 164.96 202.72 165.6 201.64 166.2L200.52 164.16C204.02 162.38 206.92 160.16 209.24 157.52ZM205.56 163.68H214.42C212.78 162.42 211.3 161 210 159.42C208.74 160.98 207.26 162.4 205.56 163.68ZM216.6 167.66V176.06H214.58V175.04H205.42V176.06H203.4V167.66H216.6ZM205.42 173.06H214.58V169.62H205.42V173.06ZM235.18 157.4C236.08 158.08 236.84 158.78 237.48 159.48L236.56 160.42H238.94V162.4H233.06C233.22 164.72 233.46 166.52 233.78 167.76C233.84 168.04 233.92 168.3 234 168.58C234.8 167.18 235.46 165.56 235.98 163.76L237.88 164.58C237.1 167.12 236.1 169.28 234.88 171.06C235.06 171.46 235.26 171.82 235.46 172.12C236.02 172.98 236.46 173.42 236.76 173.42C236.96 173.42 237.2 172.46 237.46 170.54L239.34 171.56C238.82 174.38 238.08 175.8 237.08 175.8C236.2 175.8 235.28 175.2 234.3 174.02C234.02 173.66 233.74 173.26 233.5 172.82C232.18 174.26 230.66 175.36 228.94 176.12L227.74 174.36C229.62 173.52 231.22 172.3 232.54 170.7C232.26 170 232.02 169.24 231.8 168.42C231.36 166.82 231.08 164.8 230.92 162.4H224.68V165.18H229.58C229.52 168.9 229.32 171.22 228.98 172.14C228.66 172.98 227.96 173.4 226.88 173.42C226.4 173.42 225.86 173.38 225.26 173.32L224.62 171.42C225.42 171.48 226.08 171.52 226.64 171.52C226.96 171.5 227.18 171.3 227.28 170.9C227.4 170.44 227.46 169.18 227.5 167.14H224.68C224.58 170.86 223.76 173.84 222.22 176.1L220.64 174.68C221.88 172.86 222.52 170.32 222.58 167.08V160.42H230.82C230.78 159.5 230.78 158.52 230.78 157.52H232.9C232.9 158.54 232.92 159.5 232.96 160.42H235.78C235.28 159.86 234.64 159.26 233.86 158.66L235.18 157.4ZM244.02 165.12H256V172.68H244.02V165.12ZM253.9 170.84V169.74H246.12V170.84H253.9ZM246.12 168.04H253.9V166.96H246.12V168.04ZM258.44 159.12V163H256.7V164.02H243.3V162.98H241.54V159.12H248.74C248.58 158.68 248.4 158.3 248.2 157.94L250.64 157.54C250.82 158.02 251 158.54 251.16 159.12H258.44ZM243.66 162.2H256.32V161.12H243.66V162.2ZM241.68 173.86H258.34V175.72H241.68V173.86ZM263.02 165.7C262.46 166.38 261.88 167.02 261.26 167.64L260.56 165.4C262.58 163.18 264.08 160.56 265.06 157.54L267.04 158.46C266.56 159.94 265.9 161.38 265.1 162.74V176.12H263.02V165.7ZM266.92 159.92H270.72L271.26 157.54L273.3 157.74C273.14 158.5 272.96 159.22 272.8 159.92H278.48V161.92H272.28C272.12 162.52 271.96 163.1 271.8 163.64H279.3V165.62H271.14C270.88 166.32 270.62 166.98 270.38 167.58H278.24V169.38C277.46 170.62 276.26 171.86 274.66 173.1C275.46 173.52 276.22 173.96 276.96 174.44L275.8 176.24C273.36 174.62 270.84 173.34 268.28 172.42L269.38 170.78C270.58 171.22 271.74 171.68 272.84 172.2C274.16 171.32 275.2 170.42 276 169.5H267.66C268.18 168.26 268.66 166.96 269.12 165.62H266.04V163.64H269.74C269.9 163.06 270.06 162.48 270.22 161.92H266.92V159.92ZM283.5 168.5C282.86 169.14 282.16 169.76 281.42 170.4L280.76 168.2C283.24 166.12 284.92 164.08 285.82 162.1H281.22V160.1H283.94C283.64 159.36 283.32 158.64 282.96 157.96L284.94 157.4C285.34 158.38 285.68 159.28 285.92 160.1H287.92V161.86C287.42 163.26 286.66 164.66 285.64 166.04C286.66 166.68 287.6 167.38 288.48 168.18L287.3 169.98C286.7 169.32 286.12 168.76 285.56 168.28V176.08H283.5V168.5ZM297.9 158.2V169.54H295.78V160.2H290.96V169.54H288.88V158.2H297.9ZM297.22 175.76H295.22C293.96 175.76 293.34 175.08 293.34 173.72V171C293.14 171.5 292.94 171.96 292.72 172.38C291.74 174.06 290.18 175.34 288.02 176.26L286.88 174.42C288.98 173.5 290.4 172.34 291.14 170.96C291.86 169.46 292.26 167.52 292.34 165.16V161.4H294.34V165.16C294.28 166.78 294.1 168.22 293.8 169.48H295.38V173.28C295.38 173.66 295.52 173.86 295.84 173.86H296.84C297.02 173.86 297.16 173.76 297.26 173.56C297.36 173.32 297.44 172.68 297.48 171.6L299.42 172.22C299.28 173.94 299.04 174.98 298.72 175.3C298.38 175.6 297.88 175.76 297.22 175.76ZM304.72 157.62H306.76V159.74H309.12V161.7H306.76V163.34H309.38V165.38H300.78V163.34H301.74V159.28H303.74V163.34H304.72V157.62ZM308 166.72L309.82 167.14C308.94 171.66 306.36 174.62 302.06 176.04L300.86 174.14C302.98 173.5 304.64 172.52 305.84 171.18H304.6V165.88H306.6V170.2C307.26 169.2 307.72 168.04 308 166.72ZM302.24 166.78L304.04 167.5C303.6 169.38 303 170.84 302.26 171.86L300.72 170.52C301.4 169.56 301.92 168.32 302.24 166.78ZM309.56 158.2H319.12V160.16H315.32C315.28 160.72 315.22 161.24 315.16 161.76H318.64V171.56H316.6V163.68H312.06V171.56H310.04V161.76H313C313.06 161.24 313.12 160.7 313.16 160.16H309.56V158.2ZM316.06 171.4C317.36 172.48 318.46 173.56 319.38 174.62L317.82 176.18C317.08 175.1 316.02 173.96 314.66 172.74L316.06 171.4ZM313.26 164.6H315.3V168.1C315.22 170.3 314.74 172.04 313.88 173.36C313.04 174.56 311.7 175.5 309.82 176.16L308.68 174.34C310.44 173.7 311.62 172.94 312.24 172.02C312.84 171.02 313.18 169.7 313.26 168.1V164.6Z" fill="#3DADFF"/>
        <path d="M147.96 204.42H151.28V201.6H153.32V204.42H157.56V210.4H158.86V212.44H153.96C155.14 214.84 156.96 216.82 159.4 218.34L157.98 220C155.54 218.22 153.7 216.04 152.46 213.44C151.5 216.36 149.78 218.54 147.26 219.98L145.98 218.26C148.34 217.04 149.9 215.1 150.68 212.44H147.16V210.4H151.1C151.22 209.6 151.28 208.76 151.28 207.88V206.36H147.96V204.42ZM153.32 206.36V207.42C153.32 208.46 153.24 209.46 153.12 210.4H155.56V206.36H153.32ZM141.26 205.52L142.86 205.64C142.82 207.64 142.6 209.54 142.24 211.34L140.56 210.86C140.96 209.18 141.2 207.4 141.26 205.52ZM146.82 205C147.34 206.28 147.82 207.76 148.22 209.42L146.56 209.84C146.26 208.44 145.88 207.08 145.4 205.78V220.02H143.34V201.62H145.4V205.46L146.82 205ZM167.02 203.02H171.88V201.64H173.82V203.02H178.66V204.9H173.82V206.1H178.06V211.56H173.82V217.36H171.88V212.72C170.88 214.24 169.5 215.54 167.74 216.66L166.44 214.98C168.38 214.02 169.8 212.88 170.7 211.56H167.64V206.1H171.88V204.9H167.02V203.02ZM176.16 209.76V207.88H173.82V209.76H176.16ZM171.88 209.76V207.88H169.56V209.76H171.88ZM175.52 211.88C176.78 212.92 177.86 213.94 178.76 214.98L177.36 216.34C176.62 215.36 175.56 214.3 174.18 213.16L175.52 211.88ZM162.78 201.74C164.1 202.8 165.24 203.86 166.16 204.9L164.7 206.34C163.92 205.34 162.8 204.24 161.36 203.08L162.78 201.74ZM174.18 219.76C173.08 219.76 171.88 219.74 170.6 219.72C169.3 219.7 168.24 219.58 167.4 219.38C166.6 219.14 165.9 218.68 165.3 218C165.02 217.66 164.78 217.5 164.56 217.5C164.16 217.5 163.48 218.38 162.48 220.18L160.96 218.76C161.94 217.16 162.82 216.14 163.62 215.72V210.22H160.98V208.3H165.56V215.9L165.78 216.12C166.24 216.64 166.7 217.04 167.16 217.3C167.76 217.6 168.64 217.76 169.82 217.8C170.98 217.82 172.32 217.84 173.88 217.84C174.88 217.84 175.88 217.82 176.92 217.82C177.94 217.78 178.72 217.74 179.28 217.7L178.76 219.76H174.18ZM198.64 203.48V208.3H196.54V205.5H183.42V208.3H181.32V203.48H188.7C188.5 202.92 188.28 202.42 188.04 201.96L190.42 201.56C190.64 202.14 190.86 202.78 191.06 203.48H198.64ZM184.26 207.26H195.66V209.26H184.26V207.26ZM181.22 210.96H198.8V212.98H193.42V216.94C193.42 217.54 193.66 217.84 194.14 217.84H196.6C196.8 217.84 196.94 217.7 197.04 217.44C197.12 217.18 197.2 216.36 197.24 215L199.22 215.62C199.08 217.66 198.84 218.88 198.48 219.26C198.16 219.62 197.66 219.82 197 219.82H193.5C192.06 219.82 191.34 219 191.34 217.36V212.98H188.48C188.38 214.94 187.82 216.52 186.82 217.7C185.84 218.78 184.26 219.64 182.06 220.24L180.86 218.36C183 217.82 184.44 217.16 185.18 216.36C185.92 215.48 186.32 214.36 186.4 212.98H181.22V210.96ZM215.18 201.4C216.08 202.08 216.84 202.78 217.48 203.48L216.56 204.42H218.94V206.4H213.06C213.22 208.72 213.46 210.52 213.78 211.76C213.84 212.04 213.92 212.3 214 212.58C214.8 211.18 215.46 209.56 215.98 207.76L217.88 208.58C217.1 211.12 216.1 213.28 214.88 215.06C215.06 215.46 215.26 215.82 215.46 216.12C216.02 216.98 216.46 217.42 216.76 217.42C216.96 217.42 217.2 216.46 217.46 214.54L219.34 215.56C218.82 218.38 218.08 219.8 217.08 219.8C216.2 219.8 215.28 219.2 214.3 218.02C214.02 217.66 213.74 217.26 213.5 216.82C212.18 218.26 210.66 219.36 208.94 220.12L207.74 218.36C209.62 217.52 211.22 216.3 212.54 214.7C212.26 214 212.02 213.24 211.8 212.42C211.36 210.82 211.08 208.8 210.92 206.4H204.68V209.18H209.58C209.52 212.9 209.32 215.22 208.98 216.14C208.66 216.98 207.96 217.4 206.88 217.42C206.4 217.42 205.86 217.38 205.26 217.32L204.62 215.42C205.42 215.48 206.08 215.52 206.64 215.52C206.96 215.5 207.18 215.3 207.28 214.9C207.4 214.44 207.46 213.18 207.5 211.14H204.68C204.58 214.86 203.76 217.84 202.22 220.1L200.64 218.68C201.88 216.86 202.52 214.32 202.58 211.08V204.42H210.82C210.78 203.5 210.78 202.52 210.78 201.52H212.9C212.9 202.54 212.92 203.5 212.96 204.42H215.78C215.28 203.86 214.64 203.26 213.86 202.66L215.18 201.4ZM223.5 212.5C222.86 213.14 222.16 213.76 221.42 214.4L220.76 212.2C223.24 210.12 224.92 208.08 225.82 206.1H221.22V204.1H223.94C223.64 203.36 223.32 202.64 222.96 201.96L224.94 201.4C225.34 202.38 225.68 203.28 225.92 204.1H227.92V205.86C227.42 207.26 226.66 208.66 225.64 210.04C226.66 210.68 227.6 211.38 228.48 212.18L227.3 213.98C226.7 213.32 226.12 212.76 225.56 212.28V220.08H223.5V212.5ZM237.9 202.2V213.54H235.78V204.2H230.96V213.54H228.88V202.2H237.9ZM237.22 219.76H235.22C233.96 219.76 233.34 219.08 233.34 217.72V215C233.14 215.5 232.94 215.96 232.72 216.38C231.74 218.06 230.18 219.34 228.02 220.26L226.88 218.42C228.98 217.5 230.4 216.34 231.14 214.96C231.86 213.46 232.26 211.52 232.34 209.16V205.4H234.34V209.16C234.28 210.78 234.1 212.22 233.8 213.48H235.38V217.28C235.38 217.66 235.52 217.86 235.84 217.86H236.84C237.02 217.86 237.16 217.76 237.26 217.56C237.36 217.32 237.44 216.68 237.48 215.6L239.42 216.22C239.28 217.94 239.04 218.98 238.72 219.3C238.38 219.6 237.88 219.76 237.22 219.76ZM244.72 201.62H246.76V203.74H249.12V205.7H246.76V207.34H249.38V209.38H240.78V207.34H241.74V203.28H243.74V207.34H244.72V201.62ZM248 210.72L249.82 211.14C248.94 215.66 246.36 218.62 242.06 220.04L240.86 218.14C242.98 217.5 244.64 216.52 245.84 215.18H244.6V209.88H246.6V214.2C247.26 213.2 247.72 212.04 248 210.72ZM242.24 210.78L244.04 211.5C243.6 213.38 243 214.84 242.26 215.86L240.72 214.52C241.4 213.56 241.92 212.32 242.24 210.78ZM249.56 202.2H259.12V204.16H255.32C255.28 204.72 255.22 205.24 255.16 205.76H258.64V215.56H256.6V207.68H252.06V215.56H250.04V205.76H253C253.06 205.24 253.12 204.7 253.16 204.16H249.56V202.2ZM256.06 215.4C257.36 216.48 258.46 217.56 259.38 218.62L257.82 220.18C257.08 219.1 256.02 217.96 254.66 216.74L256.06 215.4ZM253.26 208.6H255.3V212.1C255.22 214.3 254.74 216.04 253.88 217.36C253.04 218.56 251.7 219.5 249.82 220.16L248.68 218.34C250.44 217.7 251.62 216.94 252.24 216.02C252.84 215.02 253.18 213.7 253.26 212.1V208.6ZM271.64 204.68H268.02V202.66H278.78C278.78 209.62 278.68 213.92 278.48 215.54C278.24 218.3 277.1 219.68 275.1 219.68C274.64 219.68 273.86 219.64 272.74 219.56L272.22 217.66C273.2 217.72 274.04 217.76 274.74 217.76C275.74 217.76 276.3 216.68 276.46 214.56C276.58 213.6 276.64 210.32 276.68 204.68H273.72V206.24C273.64 212.64 271.56 217.3 267.5 220.26L265.76 218.72C269.62 216.12 271.58 211.96 271.64 206.24V204.68ZM268.96 205.86L269.3 207.88L265.14 208.68V214.08C266.12 213.64 267.1 213.14 268.08 212.58L268.6 214.48C266.98 215.5 264.94 216.42 262.5 217.24L261.9 215.22C262.64 214.9 263.02 214.42 263.02 213.74V209.08L260.88 209.5L260.56 207.46L263.02 206.98V201.86H265.14V206.58L268.96 205.86ZM286.52 208.56V209.56C286.52 210.2 286.48 210.8 286.44 211.38H295.62V220.14H293.52V213.38H286.2C285.7 216.28 284.64 218.52 283.04 220.1L281.42 218.68C283.38 216.78 284.38 213.74 284.42 209.56V202.16H286.52V206.56H291.74V201.58H293.8V206.56H297.9V208.56H286.52Z" fill="#3DADFF"/>
        <path d="M141.3 246.2H158.72V248.16H151.04V249.38H157.1V257.74H150.74C150.54 258.8 150.22 259.7 149.8 260.42C152.52 261.46 155.7 262.02 159.38 262.14L158.84 264.16C154.86 263.98 151.4 263.24 148.46 261.96C147.02 263.08 144.74 263.8 141.66 264.14L140.74 262.22C143.22 262.1 145.1 261.66 146.38 260.92C145.36 260.36 144.42 259.72 143.56 259L145.16 257.9C145.96 258.52 146.86 259.08 147.84 259.58C148.18 259.06 148.44 258.44 148.6 257.74H142.94V249.38H148.96V248.16H141.3V246.2ZM155.04 255.92V254.4H151.04V254.78L150.98 255.92H155.04ZM148.9 255.92C148.94 255.54 148.96 255.16 148.96 254.78V254.4H145.02V255.92H148.9ZM145.02 252.7H148.96V251.18H145.02V252.7ZM151.04 251.18V252.7H155.04V251.18H151.04ZM169.64 245.46L171.5 246.44C171.28 246.68 171.06 246.92 170.84 247.14H176.02V248.76C173.86 252.6 169.86 254.78 164 255.28L163.14 253.38C164.74 253.3 166.18 253.08 167.48 252.76C166.94 252.1 166.38 251.52 165.82 251L167.62 250.12C168.26 250.74 168.86 251.4 169.44 252.1C171.2 251.36 172.6 250.32 173.62 248.98H168.44C166.9 249.88 165.08 250.56 162.98 251.02L161.76 249.12C165.28 248.48 167.92 247.26 169.64 245.46ZM169.5 257.96C170.18 258.64 170.82 259.38 171.46 260.18C173.32 259.36 174.82 258.24 175.96 256.82H170.66C168.94 257.62 166.92 258.24 164.58 258.72L163.36 256.86C167.72 256.46 170.9 255.18 172.94 253.04L174.72 254C174.4 254.32 174.06 254.64 173.7 254.94H178.66V256.56C175.78 261.22 170.46 263.66 162.66 263.86L161.8 261.86C164.74 261.86 167.3 261.54 169.48 260.9C168.88 260.14 168.28 259.46 167.66 258.86L169.5 257.96ZM190.16 260.18C188.52 261.88 185.94 263.18 182.42 264.1L181.28 262.34C185 261.34 187.52 260.1 188.8 258.62C188.88 258.52 188.94 258.42 189.02 258.34H181.48V256.38H190.12C190.6 255.22 190.88 253.9 190.96 252.44V249.96H192.98V252.44C192.9 253.9 192.68 255.22 192.32 256.38H198.54V258.34H191.48L191.3 258.66C194.04 259.74 196.56 260.98 198.84 262.4L197.68 264.22C195.22 262.56 192.72 261.22 190.16 260.18ZM184.42 252.6C185.82 253.16 187.12 253.84 188.28 254.64L187.2 256.3C185.96 255.38 184.7 254.66 183.38 254.14L184.42 252.6ZM186.46 249.82C187.82 250.36 189.08 251.02 190.24 251.82L189.16 253.48C187.94 252.56 186.7 251.86 185.42 251.36L186.46 249.82ZM198.44 247.24V251.46H196.4V249.16H183.56V251.46H181.52V247.24H188.98C188.78 246.72 188.58 246.26 188.36 245.82L190.5 245.46C190.72 246 190.92 246.6 191.12 247.24H198.44ZM204.62 252.96V255.84H209.02V252.96H204.62ZM204.52 257.76C204.26 260.24 203.52 262.32 202.3 263.96L200.7 262.52C201.88 260.84 202.48 258.7 202.52 256.1V246.2H218.02V261.3C218.02 262.84 217.22 263.62 215.64 263.62H213.34L212.78 261.58C213.58 261.66 214.3 261.7 214.98 261.7C215.58 261.7 215.9 261.3 215.9 260.54V257.76H211.14V263.4H209.02V257.76H204.52ZM215.9 255.84V252.96H211.14V255.84H215.9ZM215.9 251.04V248.24H211.14V251.04H215.9ZM209.02 248.24H204.62V251.04H209.02V248.24ZM232.12 247.72H234.78L240.24 262H237.74L236.44 258.42H230.46L229.16 262H226.66L232.12 247.72ZM231.16 256.5H235.74L233.5 250.24H233.42L231.16 256.5ZM241.634 247.72H243.974V262H241.634V247.72ZM260.871 263.86H257.991L257.491 261.68C258.411 261.78 259.271 261.84 260.071 261.84C260.851 261.84 261.251 261.44 261.251 260.64V245.88H263.431V261.2C263.431 262.96 262.571 263.86 260.871 263.86ZM255.851 250.52L257.951 251.34C257.051 255.26 255.871 258.28 254.391 260.36L252.551 258.74C254.051 256.68 255.151 253.94 255.851 250.52ZM268.191 250C269.571 253.5 270.651 256.56 271.411 259.16L269.511 260.48C268.711 257.7 267.631 254.6 266.271 251.2L268.191 250ZM280.991 248.92H274.351V246.92H289.771V248.92H283.111V260.88H290.991V262.9H273.091V260.88H280.991V248.92ZM308.351 246.18V258.38H310.991V260.32H306.451C308.031 260.9 309.491 261.56 310.851 262.28L309.691 264.1C307.751 262.92 305.771 262 303.771 261.32L304.451 260.32H299.231L300.211 261.18C298.671 262.3 296.771 263.28 294.511 264.14L293.231 262.46C295.031 261.82 296.591 261.12 297.911 260.32H293.071V258.38H295.711V246.18H308.351ZM297.811 258.38H306.251V257.04H297.811V258.38ZM297.811 255.4H306.251V254.04H297.811V255.4ZM297.811 252.4H306.251V251.02H297.811V252.4ZM297.811 249.4H306.251V248.14H297.811V249.4Z" fill="#3DADFF"/>
        <g filter="url(#filter9_d_262_707)">
            <path d="M119.009 166.781V161.668C119.009 160.194 117.815 159 116.341 159H100.668C99.1944 159 98 160.194 98 161.668V171.894C98 173.368 99.1944 174.562 100.668 174.562H108.504" stroke="white" stroke-width="2" stroke-linecap="round"/>
            <path d="M111.616 166.726C112.169 167.125 112.169 167.949 111.616 168.348L107.922 171.014C107.26 171.491 106.337 171.018 106.337 170.203L106.337 164.871C106.337 164.055 107.26 163.583 107.922 164.06L111.616 166.726Z" fill="white"/>
            <path d="M113.562 172.228H119.787" stroke="white" stroke-width="2" stroke-linecap="round" stroke-linejoin="round"/>
            <path d="M116.675 175.34L116.675 169.115" stroke="white" stroke-width="2" stroke-linecap="round" stroke-linejoin="round"/>
        </g>
        <g filter="url(#filter10_d_262_707)">
            <path d="M100.151 202.8C100.151 201.834 100.934 201.05 101.901 201.05H117.301C118.267 201.05 119.051 201.834 119.051 202.8V206.65H100.151V202.8Z" stroke="white" stroke-width="2.1" stroke-linejoin="round" shape-rendering="crispEdges"/>
        </g>
        <g filter="url(#filter11_d_262_707)">
            <path d="M100.151 218.2C100.151 219.167 100.934 219.95 101.901 219.95H117.301C118.267 219.95 119.051 219.167 119.051 218.2V214.35H100.151V218.2Z" stroke="white" stroke-width="2.1" stroke-linejoin="round" shape-rendering="crispEdges"/>
        </g>
        <g filter="url(#filter12_d_262_707)">
            <line x1="97" y1="210.5" x2="121.5" y2="210.5" stroke="white" stroke-width="1.4" stroke-linejoin="round" stroke-dasharray="1.4 1.4"/>
        </g>
        <g filter="url(#filter13_d_262_707)">
            <path d="M99 248.538C99 246.032 101.032 244 103.538 244C106.045 244 108.077 246.032 108.077 248.538V253.077H103.538C101.032 253.077 99 251.045 99 248.538Z" stroke="white" stroke-width="2" stroke-linejoin="round" shape-rendering="crispEdges"/>
        </g>
        <g filter="url(#filter14_d_262_707)">
            <path d="M121 248.538C121 246.032 118.968 244 116.462 244C113.955 244 111.923 246.032 111.923 248.538V253.077H116.462C118.968 253.077 121 251.045 121 248.538Z" stroke="white" stroke-width="2" stroke-linejoin="round" shape-rendering="crispEdges"/>
        </g>
        <g filter="url(#filter15_d_262_707)">
            <path d="M99 261.462C99 263.968 101.032 266 103.538 266C106.045 266 108.077 263.968 108.077 261.462V256.923H103.538C101.032 256.923 99 258.955 99 261.462Z" stroke="white" stroke-width="2" stroke-linejoin="round" shape-rendering="crispEdges"/>
        </g>
        <g filter="url(#filter16_d_262_707)">
            <path d="M121 261.462C121 263.968 118.968 266 116.462 266C113.955 266 111.923 263.968 111.923 261.462V256.923H116.462C118.968 256.923 121 258.955 121 261.462Z" stroke="white" stroke-width="2" stroke-linejoin="round" shape-rendering="crispEdges"/>
        </g>
        <g opacity="0.8" filter="url(#filter17_d_262_707)">
            <path d="M395.295 264.711L398.59 248.037L441.646 223.908L395.295 264.711Z" fill="url(#paint5_linear_262_707)"/>
            <path d="M441.647 223.908L386.904 237.266L398.591 248.037L440.277 224.846L403.146 250.952L419.686 269.128L441.647 223.908Z" fill="url(#paint6_linear_262_707)"/>
        </g>
        <path d="M381.609 278.191L364.711 291.411" stroke="url(#paint7_linear_262_707)" stroke-width="3.50099" stroke-linecap="round"/>
        <path d="M380.896 266.768L351 290.158" stroke="url(#paint8_linear_262_707)" stroke-width="3.50099" stroke-linecap="round"/>
        <circle cx="474" cy="289" r="2" fill="#CDAFFF"/>
        <circle cx="410" cy="195" r="2" fill="#93CDFF"/>
        <circle cx="110" cy="328" r="2" fill="white"/>
        <circle cx="340" cy="75" r="2" fill="#55B7FF"/>
        <circle cx="103" cy="34" r="3" fill="#E479FF"/>
        <circle cx="304" cy="328" r="3" fill="#42F4FF"/>
    </g>
    <defs>
        <filter id="filter0_d_262_707" x="-114" y="-150" width="1109" height="675" filterUnits="userSpaceOnUse" color-interpolation-filters="sRGB">
            <feFlood flood-opacity="0" result="BackgroundImageFix"/>
            <feColorMatrix in="SourceAlpha" type="matrix" values="0 0 0 0 0 0 0 0 0 0 0 0 0 0 0 0 0 0 127 0" result="hardAlpha"/>
            <feMorphology radius="50" operator="dilate" in="SourceAlpha" result="effect1_dropShadow_262_707"/>
            <feOffset/>
            <feGaussianBlur stdDeviation="50"/>
            <feComposite in2="hardAlpha" operator="out"/>
            <feColorMatrix type="matrix" values="0 0 0 0 0.164706 0 0 0 0 0.572549 0 0 0 0 0.870588 0 0 0 0.14 0"/>
            <feBlend mode="normal" in2="BackgroundImageFix" result="effect1_dropShadow_262_707"/>
            <feBlend mode="normal" in="SourceGraphic" in2="effect1_dropShadow_262_707" result="shape"/>
        </filter>
        <filter id="filter1_f_262_707" x="-230" y="-197" width="773" height="747.917" filterUnits="userSpaceOnUse" color-interpolation-filters="sRGB">
            <feFlood flood-opacity="0" result="BackgroundImageFix"/>
            <feBlend mode="normal" in="SourceGraphic" in2="BackgroundImageFix" result="shape"/>
            <feGaussianBlur stdDeviation="75" result="effect1_foregroundBlur_262_707"/>
        </filter>
        <filter id="filter2_b_262_707" x="-32.1719" y="37.8281" width="374.267" height="275.606" filterUnits="userSpaceOnUse" color-interpolation-filters="sRGB">
            <feFlood flood-opacity="0" result="BackgroundImageFix"/>
            <feGaussianBlur in="BackgroundImageFix" stdDeviation="16.086"/>
            <feComposite in2="SourceAlpha" operator="in" result="effect1_backgroundBlur_262_707"/>
            <feBlend mode="normal" in="SourceGraphic" in2="effect1_backgroundBlur_262_707" result="shape"/>
        </filter>
        <filter id="filter3_b_262_707" x="172.656" y="91.448" width="87.9366" height="131.905" filterUnits="userSpaceOnUse" color-interpolation-filters="sRGB">
            <feFlood flood-opacity="0" result="BackgroundImageFix"/>
            <feGaussianBlur in="BackgroundImageFix" stdDeviation="2.1448"/>
            <feComposite in2="SourceAlpha" operator="in" result="effect1_backgroundBlur_262_707"/>
            <feBlend mode="normal" in="SourceGraphic" in2="effect1_backgroundBlur_262_707" result="shape"/>
        </filter>
        <filter id="filter4_b_262_707" x="52.5473" y="91.448" width="117.964" height="131.905" filterUnits="userSpaceOnUse" color-interpolation-filters="sRGB">
            <feFlood flood-opacity="0" result="BackgroundImageFix"/>
            <feGaussianBlur in="BackgroundImageFix" stdDeviation="2.1448"/>
            <feComposite in2="SourceAlpha" operator="in" result="effect1_backgroundBlur_262_707"/>
            <feBlend mode="normal" in="SourceGraphic" in2="effect1_backgroundBlur_262_707" result="shape"/>
        </filter>
        <filter id="filter5_b_262_707" x="52.5473" y="224.425" width="208.045" height="48.2579" filterUnits="userSpaceOnUse" color-interpolation-filters="sRGB">
            <feFlood flood-opacity="0" result="BackgroundImageFix"/>
            <feGaussianBlur in="BackgroundImageFix" stdDeviation="2.1448"/>
            <feComposite in2="SourceAlpha" operator="in" result="effect1_backgroundBlur_262_707"/>
            <feBlend mode="normal" in="SourceGraphic" in2="effect1_backgroundBlur_262_707" result="shape"/>
        </filter>
        <filter id="filter6_b_262_707" x="50.5473" y="72.1449" width="41.8233" height="21.448" filterUnits="userSpaceOnUse" color-interpolation-filters="sRGB">
            <feFlood flood-opacity="0" result="BackgroundImageFix"/>
            <feGaussianBlur in="BackgroundImageFix" stdDeviation="2.1448"/>
            <feComposite in2="SourceAlpha" operator="in" result="effect1_backgroundBlur_262_707"/>
            <feBlend mode="normal" in="SourceGraphic" in2="effect1_backgroundBlur_262_707" result="shape"/>
        </filter>
        <filter id="filter7_bd_262_707" x="39" y="84" width="341.923" height="243.262" filterUnits="userSpaceOnUse" color-interpolation-filters="sRGB">
            <feFlood flood-opacity="0" result="BackgroundImageFix"/>
            <feGaussianBlur in="BackgroundImageFix" stdDeviation="5"/>
            <feComposite in2="SourceAlpha" operator="in" result="effect1_backgroundBlur_262_707"/>
            <feColorMatrix in="SourceAlpha" type="matrix" values="0 0 0 0 0 0 0 0 0 0 0 0 0 0 0 0 0 0 127 0" result="hardAlpha"/>
            <feMorphology radius="6" operator="dilate" in="SourceAlpha" result="effect2_dropShadow_262_707"/>
            <feOffset dy="4"/>
            <feGaussianBlur stdDeviation="5"/>
            <feComposite in2="hardAlpha" operator="out"/>
            <feColorMatrix type="matrix" values="0 0 0 0 0.117647 0 0 0 0 0.564706 0 0 0 0 0.898039 0 0 0 0.09 0"/>
            <feBlend mode="normal" in2="effect1_backgroundBlur_262_707" result="effect2_dropShadow_262_707"/>
            <feBlend mode="normal" in="SourceGraphic" in2="effect2_dropShadow_262_707" result="shape"/>
        </filter>
        <filter id="filter8_d_262_707" x="623" y="263" width="182" height="76" filterUnits="userSpaceOnUse" color-interpolation-filters="sRGB">
            <feFlood flood-opacity="0" result="BackgroundImageFix"/>
            <feColorMatrix in="SourceAlpha" type="matrix" values="0 0 0 0 0 0 0 0 0 0 0 0 0 0 0 0 0 0 127 0" result="hardAlpha"/>
            <feOffset dy="4"/>
            <feGaussianBlur stdDeviation="4"/>
            <feComposite in2="hardAlpha" operator="out"/>
            <feColorMatrix type="matrix" values="0 0 0 0 0.671565 0 0 0 0 0.469157 0 0 0 0 1 0 0 0 0.5 0"/>
            <feBlend mode="normal" in2="BackgroundImageFix" result="effect1_dropShadow_262_707"/>
            <feBlend mode="normal" in="SourceGraphic" in2="effect1_dropShadow_262_707" result="shape"/>
        </filter>
        <filter id="filter9_d_262_707" x="93" y="158" width="31.7876" height="26.3403" filterUnits="userSpaceOnUse" color-interpolation-filters="sRGB">
            <feFlood flood-opacity="0" result="BackgroundImageFix"/>
            <feColorMatrix in="SourceAlpha" type="matrix" values="0 0 0 0 0 0 0 0 0 0 0 0 0 0 0 0 0 0 127 0" result="hardAlpha"/>
            <feOffset dy="4"/>
            <feGaussianBlur stdDeviation="2"/>
            <feComposite in2="hardAlpha" operator="out"/>
            <feColorMatrix type="matrix" values="0 0 0 0 0.164706 0 0 0 0 0.572549 0 0 0 0 0.870588 0 0 0 0.45 0"/>
            <feBlend mode="normal" in2="BackgroundImageFix" result="effect1_dropShadow_262_707"/>
            <feBlend mode="normal" in="SourceGraphic" in2="effect1_dropShadow_262_707" result="shape"/>
        </filter>
        <filter id="filter10_d_262_707" x="95.1006" y="200" width="29" height="15.7" filterUnits="userSpaceOnUse" color-interpolation-filters="sRGB">
            <feFlood flood-opacity="0" result="BackgroundImageFix"/>
            <feColorMatrix in="SourceAlpha" type="matrix" values="0 0 0 0 0 0 0 0 0 0 0 0 0 0 0 0 0 0 127 0" result="hardAlpha"/>
            <feOffset dy="4"/>
            <feGaussianBlur stdDeviation="2"/>
            <feComposite in2="hardAlpha" operator="out"/>
            <feColorMatrix type="matrix" values="0 0 0 0 0.164706 0 0 0 0 0.572549 0 0 0 0 0.870588 0 0 0 0.45 0"/>
            <feBlend mode="normal" in2="BackgroundImageFix" result="effect1_dropShadow_262_707"/>
            <feBlend mode="normal" in="SourceGraphic" in2="effect1_dropShadow_262_707" result="shape"/>
        </filter>
        <filter id="filter11_d_262_707" x="95.1006" y="213.3" width="29" height="15.7" filterUnits="userSpaceOnUse" color-interpolation-filters="sRGB">
            <feFlood flood-opacity="0" result="BackgroundImageFix"/>
            <feColorMatrix in="SourceAlpha" type="matrix" values="0 0 0 0 0 0 0 0 0 0 0 0 0 0 0 0 0 0 127 0" result="hardAlpha"/>
            <feOffset dy="4"/>
            <feGaussianBlur stdDeviation="2"/>
            <feComposite in2="hardAlpha" operator="out"/>
            <feColorMatrix type="matrix" values="0 0 0 0 0.164706 0 0 0 0 0.572549 0 0 0 0 0.870588 0 0 0 0.45 0"/>
            <feBlend mode="normal" in2="BackgroundImageFix" result="effect1_dropShadow_262_707"/>
            <feBlend mode="normal" in="SourceGraphic" in2="effect1_dropShadow_262_707" result="shape"/>
        </filter>
        <filter id="filter12_d_262_707" x="93" y="209.8" width="32.5" height="9.4" filterUnits="userSpaceOnUse" color-interpolation-filters="sRGB">
            <feFlood flood-opacity="0" result="BackgroundImageFix"/>
            <feColorMatrix in="SourceAlpha" type="matrix" values="0 0 0 0 0 0 0 0 0 0 0 0 0 0 0 0 0 0 127 0" result="hardAlpha"/>
            <feOffset dy="4"/>
            <feGaussianBlur stdDeviation="2"/>
            <feComposite in2="hardAlpha" operator="out"/>
            <feColorMatrix type="matrix" values="0 0 0 0 0.164706 0 0 0 0 0.572549 0 0 0 0 0.870588 0 0 0 0.45 0"/>
            <feBlend mode="normal" in2="BackgroundImageFix" result="effect1_dropShadow_262_707"/>
            <feBlend mode="normal" in="SourceGraphic" in2="effect1_dropShadow_262_707" result="shape"/>
        </filter>
        <filter id="filter13_d_262_707" x="94.3077" y="243" width="18.4618" height="18.4615" filterUnits="userSpaceOnUse" color-interpolation-filters="sRGB">
            <feFlood flood-opacity="0" result="BackgroundImageFix"/>
            <feColorMatrix in="SourceAlpha" type="matrix" values="0 0 0 0 0 0 0 0 0 0 0 0 0 0 0 0 0 0 127 0" result="hardAlpha"/>
            <feOffset dy="3.69231"/>
            <feGaussianBlur stdDeviation="1.84615"/>
            <feComposite in2="hardAlpha" operator="out"/>
            <feColorMatrix type="matrix" values="0 0 0 0 0.117647 0 0 0 0 0.564706 0 0 0 0 0.898039 0 0 0 0.45 0"/>
            <feBlend mode="normal" in2="BackgroundImageFix" result="effect1_dropShadow_262_707"/>
            <feBlend mode="normal" in="SourceGraphic" in2="effect1_dropShadow_262_707" result="shape"/>
        </filter>
        <filter id="filter14_d_262_707" x="107.231" y="243" width="18.4618" height="18.4615" filterUnits="userSpaceOnUse" color-interpolation-filters="sRGB">
            <feFlood flood-opacity="0" result="BackgroundImageFix"/>
            <feColorMatrix in="SourceAlpha" type="matrix" values="0 0 0 0 0 0 0 0 0 0 0 0 0 0 0 0 0 0 127 0" result="hardAlpha"/>
            <feOffset dy="3.69231"/>
            <feGaussianBlur stdDeviation="1.84615"/>
            <feComposite in2="hardAlpha" operator="out"/>
            <feColorMatrix type="matrix" values="0 0 0 0 0.117647 0 0 0 0 0.564706 0 0 0 0 0.898039 0 0 0 0.45 0"/>
            <feBlend mode="normal" in2="BackgroundImageFix" result="effect1_dropShadow_262_707"/>
            <feBlend mode="normal" in="SourceGraphic" in2="effect1_dropShadow_262_707" result="shape"/>
        </filter>
        <filter id="filter15_d_262_707" x="94.3077" y="255.923" width="18.4618" height="18.4615" filterUnits="userSpaceOnUse" color-interpolation-filters="sRGB">
            <feFlood flood-opacity="0" result="BackgroundImageFix"/>
            <feColorMatrix in="SourceAlpha" type="matrix" values="0 0 0 0 0 0 0 0 0 0 0 0 0 0 0 0 0 0 127 0" result="hardAlpha"/>
            <feOffset dy="3.69231"/>
            <feGaussianBlur stdDeviation="1.84615"/>
            <feComposite in2="hardAlpha" operator="out"/>
            <feColorMatrix type="matrix" values="0 0 0 0 0.117647 0 0 0 0 0.564706 0 0 0 0 0.898039 0 0 0 0.45 0"/>
            <feBlend mode="normal" in2="BackgroundImageFix" result="effect1_dropShadow_262_707"/>
            <feBlend mode="normal" in="SourceGraphic" in2="effect1_dropShadow_262_707" result="shape"/>
        </filter>
        <filter id="filter16_d_262_707" x="107.231" y="255.923" width="18.4618" height="18.4615" filterUnits="userSpaceOnUse" color-interpolation-filters="sRGB">
            <feFlood flood-opacity="0" result="BackgroundImageFix"/>
            <feColorMatrix in="SourceAlpha" type="matrix" values="0 0 0 0 0 0 0 0 0 0 0 0 0 0 0 0 0 0 127 0" result="hardAlpha"/>
            <feOffset dy="3.69231"/>
            <feGaussianBlur stdDeviation="1.84615"/>
            <feComposite in2="hardAlpha" operator="out"/>
            <feColorMatrix type="matrix" values="0 0 0 0 0.117647 0 0 0 0 0.564706 0 0 0 0 0.898039 0 0 0 0.45 0"/>
            <feBlend mode="normal" in2="BackgroundImageFix" result="effect1_dropShadow_262_707"/>
            <feBlend mode="normal" in="SourceGraphic" in2="effect1_dropShadow_262_707" result="shape"/>
        </filter>
        <filter id="filter17_d_262_707" x="376.304" y="222.308" width="75.9427" height="66.4194" filterUnits="userSpaceOnUse" color-interpolation-filters="sRGB">
            <feFlood flood-opacity="0" result="BackgroundImageFix"/>
            <feColorMatrix in="SourceAlpha" type="matrix" values="0 0 0 0 0 0 0 0 0 0 0 0 0 0 0 0 0 0 127 0" result="hardAlpha"/>
            <feOffset dy="9"/>
            <feGaussianBlur stdDeviation="5.3"/>
            <feComposite in2="hardAlpha" operator="out"/>
            <feColorMatrix type="matrix" values="0 0 0 0 0.164706 0 0 0 0 0.572549 0 0 0 0 0.870588 0 0 0 0.4 0"/>
            <feBlend mode="normal" in2="BackgroundImageFix" result="effect1_dropShadow_262_707"/>
            <feBlend mode="normal" in="SourceGraphic" in2="effect1_dropShadow_262_707" result="shape"/>
        </filter>
        <linearGradient id="paint0_linear_262_707" x1="355.558" y1="84.6859" x2="62.3654" y2="379.194" gradientUnits="userSpaceOnUse">
            <stop stop-color="#1F91E5"/>
            <stop offset="0.5" stop-color="#42F5FF"/>
            <stop offset="0.985" stop-color="#7843CE"/>
        </linearGradient>
        <linearGradient id="paint1_linear_262_707" x1="274.534" y1="82.3326" x2="14.4774" y2="281.262" gradientUnits="userSpaceOnUse">
            <stop stop-color="#5AB9FF" stop-opacity="0.21"/>
            <stop offset="0.470781" stop-color="#C0FBFF" stop-opacity="0.51"/>
            <stop offset="1" stop-color="#9D60FF" stop-opacity="0.18"/>
        </linearGradient>
        <linearGradient id="paint2_linear_262_707" x1="111.529" y1="95.7375" x2="111.529" y2="219.063" gradientUnits="userSpaceOnUse">
            <stop stop-color="#86CCFF"/>
            <stop offset="1" stop-color="#A8DAFF"/>
        </linearGradient>
        <linearGradient id="paint3_linear_262_707" x1="156.57" y1="228.715" x2="156.57" y2="268.394" gradientUnits="userSpaceOnUse">
            <stop stop-color="#86CCFF"/>
            <stop offset="1" stop-color="#A8DAFF"/>
        </linearGradient>
        <radialGradient id="paint4_radial_262_707" cx="0" cy="0" r="1" gradientUnits="userSpaceOnUse" gradientTransform="translate(210.498 307.262) rotate(-90) scale(211.262 309.923)">
            <stop stop-color="#C8E6FF"/>
            <stop offset="1" stop-color="#F6FBFF"/>
        </radialGradient>
        <linearGradient id="paint5_linear_262_707" x1="419.124" y1="240.007" x2="395.546" y2="262.784" gradientUnits="userSpaceOnUse">
            <stop stop-color="#328FFF"/>
            <stop offset="1" stop-color="#7843CE"/>
        </linearGradient>
        <linearGradient id="paint6_linear_262_707" x1="441.455" y1="223.87" x2="398.997" y2="248.558" gradientUnits="userSpaceOnUse">
            <stop stop-color="#42F4FF"/>
            <stop offset="1" stop-color="#1E90E5"/>
        </linearGradient>
        <linearGradient id="paint7_linear_262_707" x1="374.079" y1="277.271" x2="372.241" y2="292.33" gradientUnits="userSpaceOnUse">
            <stop stop-color="#60BBFF"/>
            <stop offset="1" stop-color="#AADDFF"/>
        </linearGradient>
        <linearGradient id="paint8_linear_262_707" x1="367.574" y1="265.142" x2="364.321" y2="291.785" gradientUnits="userSpaceOnUse">
            <stop stop-color="#60BBFF"/>
            <stop offset="1" stop-color="#AADDFF"/>
        </linearGradient>
        <clipPath id="clip0_262_707">
            <rect width="845" height="375" fill="white"/>
        </clipPath>
    </defs>
</svg>
